<?xml version="1.0" encoding="UTF-8" standalone="no" ?>
<!DOCTYPE svg PUBLIC "-//W3C//DTD SVG 1.1//EN" "http://www.w3.org/Graphics/SVG/1.1/DTD/svg11.dtd">
<svg xmlns="http://www.w3.org/2000/svg" xmlns:xlink="http://www.w3.org/1999/xlink" version="1.1" width="1280" height="1024" viewBox="0 0 1280 1024" xml:space="preserve">
<desc>Created with Fabric.js 5.3.0</desc>
<defs>
</defs>
<g transform="matrix(1 0 0 1 640 512)" id="background-logo"  >
<rect style="stroke: none; stroke-width: 0; stroke-dasharray: none; stroke-linecap: butt; stroke-dashoffset: 0; stroke-linejoin: miter; stroke-miterlimit: 4; fill: rgb(255,255,255); fill-opacity: 0; fill-rule: nonzero; opacity: 1;"  paint-order="stroke"  x="-640" y="-512" rx="0" ry="0" width="1280" height="1024" />
</g>
<g transform="matrix(1.9211538461538462 0 0 1.9211538461538462 640 376.9551286287649)" id="logo-logo"  >
<g style=""  paint-order="stroke"   >
		<g transform="matrix(1.2586769625938572 0 0 1.2586769625938572 -0.43339190356351764 -0.2593440430052283)"  >
<g style=""  paint-order="stroke"   >
		<g transform="matrix(1 0 0 1 0 0)"  >
<path style="stroke: none; stroke-width: 1; stroke-dasharray: none; stroke-linecap: butt; stroke-dashoffset: 0; stroke-linejoin: miter; stroke-miterlimit: 4; fill: rgb(15,4,31); fill-rule: nonzero; opacity: 1;"  paint-order="stroke"  transform=" translate(-100, -100)" d="M 200 100 C 200 155.22847498307934 155.22847498307934 200 100 200 C 44.771525016920656 200 0 155.22847498307934 0 100 C 0 44.771525016920656 44.771525016920656 0 100 0 C 155.22847498307934 0 200 44.77152501692063 200 99.99999999999997 Z" stroke-linecap="round" />
</g>
</g>
</g>
		<g transform="matrix(0.36373638570164396 0 0 -0.363736385701644 0 0)"  >
<path style="stroke: none; stroke-width: 1; stroke-dasharray: none; stroke-linecap: butt; stroke-dashoffset: 0; stroke-linejoin: miter; stroke-miterlimit: 4; fill: rgb(15,4,31); fill-rule: nonzero; opacity: 1;"  paint-order="stroke"  transform=" translate(250.6424999999998, -104.74900000000002)" d="M 0 0 C -29.909 0 -58.295 -9.521 -82.064 -27.579 C -102.362 -42.971000000000004 -118.09 -64.098 -127.097 -87.77799999999999 C -139.755 -82.692 -153.421 -80.026 -167.10999999999999 -80.026 C -168.16299999999998 -80.026 -169.238 -80.04899999999999 -170.291 -80.071 C -162.158 -32.553 -125.304 6.094000000000008 -76.688 15.323999999999998 L -69.36200000000001 16.735 L -69.54100000000001 24.174 L -69.56300000000002 25.003 C -69.58600000000001 25.406 -69.58600000000001 25.809 -69.58600000000001 26.212 C -69.58600000000001 69.631 -34.277000000000015 104.962 9.141999999999982 104.962 C 28.69999999999998 104.962 47.45099999999998 97.726 61.945999999999984 84.619 L 67.61499999999998 79.488 L 73.48499999999999 84.396 C 78.25699999999999 88.36 83.25299999999999 92.035 88.42899999999999 95.373 C 87.353 55.853 79.467 17.99 65.935 -17.072 C 45.884 -5.96 23.166 0 0 0 M -243.261 -234.367 C -237.79399999999998 -220.051 -234.74699999999999 -204.524 -234.74699999999999 -188.28199999999998 C -234.74699999999999 -171.59099999999998 -237.92899999999997 -155.64 -243.70899999999997 -140.96499999999997 C -228.04899999999998 -114.99899999999997 -199.57299999999998 -97.59099999999998 -167.10999999999996 -97.59099999999998 C -152.61499999999995 -97.59099999999998 -138.76899999999995 -100.97499999999998 -125.95399999999995 -107.62799999999999 L -116.47799999999995 -112.55699999999999 L -113.47499999999995 -102.31799999999998 C -106.39599999999996 -78.34699999999998 -91.45199999999996 -56.77099999999999 -71.42299999999994 -41.55999999999998 C -50.74399999999994 -25.87699999999998 -26.032999999999944 -17.563999999999982 5.684341886080802e-14 -17.563999999999982 C 20.858000000000057 -17.563999999999982 41.269000000000055 -23.098999999999982 59.12400000000006 -33.40399999999998 C 7.08 -149.68 -108.546 -231.477 -243.261 -234.367 M -252.603 -122.773 C -274.581 -85.51599999999999 -314.684 -60.177 -360.679 -58.967 C -351.202 -56.568999999999996 -341.38899999999995 -55.338 -331.352 -55.338 C -303.70599999999996 -55.338 -276.799 -65.061 -255.62699999999998 -82.76 L -249.75799999999998 -87.66600000000001 L -244.08899999999997 -82.53600000000002 C -233.15599999999998 -72.65500000000002 -219.01999999999998 -67.18900000000002 -204.277 -67.18900000000002 C -197.982 -67.18900000000002 -191.911 -68.19700000000002 -186.22099999999998 -70.01200000000001 C -187.11599999999999 -74.00000000000001 -187.85599999999997 -78.055 -188.39399999999998 -82.15500000000002 C -214.47199999999998 -87.44200000000002 -237.14499999999998 -102.25100000000002 -252.60299999999998 -122.77300000000002 M -262.25899999999996 -234.23200000000003 C -415.4119999999999 -229.05700000000002 -543.1129999999999 -121.87700000000002 -579.4749999999999 21.372999999999962 C -576.0919999999999 21.596999999999962 -572.7079999999999 21.753999999999962 -569.3259999999999 21.753999999999962 C -536.886 21.753999999999962 -506.14699999999993 11.425999999999963 -480.3829999999999 -8.110000000000039 C -455.44699999999995 -27.042000000000037 -436.8519999999999 -53.903000000000034 -428.0469999999999 -83.76800000000004 L -425.0229999999999 -93.98400000000004 L -415.5679999999999 -89.07800000000003 C -399.52699999999993 -80.72100000000003 -382.2319999999999 -76.50900000000003 -364.1069999999999 -76.50900000000003 C -302.47399999999993 -76.50900000000003 -252.33399999999992 -126.64900000000003 -252.33399999999992 -188.28200000000004 C -252.33399999999992 -204.65900000000005 -255.89599999999993 -220.20700000000005 -262.2589999999999 -234.23200000000003 M -589.02 81.23599999999999 L -586.823 83.25299999999999 C -573.0219999999999 95.70899999999999 -555.189 102.58699999999999 -536.5939999999999 102.58699999999999 C -495.28099999999995 102.58699999999999 -461.67599999999993 68.981 -461.67599999999993 27.69099999999999 C -461.67599999999993 27.31099999999999 -461.6979999999999 26.92999999999999 -461.72099999999995 26.54899999999999 L -461.92199999999997 18.303999999999988 L -454.59599999999995 16.91499999999999 C -418.74999999999994 10.103999999999989 -389.62499999999994 -13.487000000000013 -374.68199999999996 -44.763000000000005 C -388.48199999999997 -49.400000000000006 -401.54299999999995 -56.301 -413.43999999999994 -65.33000000000001 C -414.04499999999996 -65.80000000000001 -414.6499999999999 -66.293 -415.27699999999993 -66.78600000000002 C -426.2099999999999 -38.198000000000015 -445.25299999999993 -12.726000000000013 -469.7629999999999 5.86999999999999 C -498.5969999999999 27.757999999999992 -533.0319999999999 39.34099999999999 -569.3259999999999 39.34099999999999 C -574.031 39.34099999999999 -578.713 39.11699999999999 -583.3739999999999 38.713999999999984 C -586.1289999999999 52.603999999999985 -588.0329999999999 66.80899999999998 -589.0199999999999 81.23599999999999 M -589.8479999999998 104.73799999999999 C -589.8479999999998 291.788 -437.6809999999998 443.955 -250.63199999999983 443.955 C -67.30099999999985 443.955 82.51400000000018 297.74699999999996 88.36100000000016 115.805 C 81.28100000000016 111.86200000000001 74.47100000000016 107.426 67.97400000000016 102.47500000000001 C 51.17000000000016 115.447 30.55900000000016 122.52600000000001 9.14200000000016 122.52600000000001 C -42.34299999999984 122.52600000000001 -84.50699999999983 81.90800000000002 -87.06199999999984 31.052000000000007 C -131.17399999999984 20.208000000000006 -165.98999999999984 -12.008999999999993 -181.20099999999985 -53.16399999999999 C -188.48199999999986 -50.87899999999999 -196.23499999999984 -49.624999999999986 -204.27699999999984 -49.624999999999986 C -220.87899999999985 -49.624999999999986 -236.87499999999983 -54.95699999999999 -250.07199999999983 -64.74699999999999 C -273.46099999999984 -47.29499999999999 -302.04799999999983 -37.75099999999999 -331.35199999999986 -37.75099999999999 C -340.2019999999999 -37.75099999999999 -348.91699999999986 -38.60199999999999 -357.40799999999984 -40.23699999999999 C -373.31399999999985 -4.637999999999991 -404.88199999999983 22.85200000000001 -444.24599999999987 32.62000000000001 C -446.79899999999986 81.32600000000002 -487.26099999999985 120.15200000000002 -536.5939999999998 120.15200000000002 C -555.7719999999998 120.15200000000002 -574.3219999999998 114.23700000000001 -589.8259999999998 103.30400000000002 C -589.8259999999998 103.77400000000002 -589.8479999999998 104.26800000000001 -589.8479999999998 104.73800000000001 M -250.63199999999983 466.358 C -450.02599999999984 466.358 -612.2519999999998 304.132 -612.2519999999998 104.738 C -612.2519999999998 -94.656 -450.02599999999984 -256.86 -250.63199999999983 -256.86 C -51.236999999999824 -256.86 110.96700000000016 -94.656 110.96700000000016 104.738 C 110.96700000000016 304.132 -51.23699999999985 466.358 -250.63199999999983 466.358" stroke-linecap="round" />
</g>
		<g transform="matrix(0.36373638570164396 0 0 -0.363736385701644 -0.03379111023167525 -30.86790639435287)"  >
<path style="stroke: none; stroke-width: 1; stroke-dasharray: none; stroke-linecap: butt; stroke-dashoffset: 0; stroke-linejoin: miter; stroke-miterlimit: 4; fill: rgb(30,9,63); fill-rule: nonzero; opacity: 1;"  paint-order="stroke"  transform=" translate(339.10450000000003, -73.79849999999999)" d="M 0 0 C -7.079 -3.943 -13.891 -8.379 -20.388 -13.331 C -37.19 -0.358 -57.802 6.721 -79.22 6.721 C -130.704 6.721 -172.868 -33.897000000000006 -175.422 -84.753 C -219.535 -95.597 -254.351 -127.814 -269.563 -168.969 C -276.84499999999997 -166.684 -284.596 -165.43 -292.639 -165.43 C -309.24 -165.43 -325.236 -170.762 -338.433 -180.55200000000002 C -361.822 -163.10000000000002 -390.409 -153.556 -419.71299999999997 -153.556 C -428.563 -153.556 -437.27799999999996 -154.407 -445.77 -156.042 C -461.676 -120.44300000000001 -493.243 -92.95400000000001 -532.606 -83.185 C -535.161 -34.479 -575.622 4.346999999999994 -624.955 4.346999999999994 C -644.133 4.346999999999994 -662.683 -1.5680000000000058 -678.187 -12.501000000000005 C -678.187 -12.031000000000004 -678.2090000000001 -11.538000000000006 -678.2090000000001 -11.067000000000005 C -678.2090000000001 175.982 -526.042 328.149 -338.99300000000005 328.149 C -155.662 328.149 -5.848 181.942 0 0" stroke-linecap="round" />
</g>
		<g transform="matrix(0.36373638570164396 0 0 -0.363736385701644 -80.89391734452715 -54.051481530734236)"  >
<path style="stroke: none; stroke-width: 1; stroke-dasharray: none; stroke-linecap: butt; stroke-dashoffset: 0; stroke-linejoin: miter; stroke-miterlimit: 4; fill: rgb(255,255,255); fill-rule: nonzero; opacity: 1;"  paint-order="stroke"  transform=" translate(1.77636e-15, 9.557)" d="M 0 0 L 1.782 -8.114 L 10.049 -7.301000000000001 L 2.882999999999999 -11.502 L 6.209999999999999 -19.114 L -8.881784197001252e-16 -13.597000000000001 L -6.210000000000001 -19.114 L -2.883000000000001 -11.502 L -10.049000000000001 -7.301000000000001 L -1.7820000000000018 -8.114 z" stroke-linecap="round" />
</g>
		<g transform="matrix(0.36373638570164396 0 0 -0.363736385701644 -82.8798816368195 -15.698935154160097)"  >
<path style="stroke: none; stroke-width: 1; stroke-dasharray: none; stroke-linecap: butt; stroke-dashoffset: 0; stroke-linejoin: miter; stroke-miterlimit: 4; fill: rgb(255,255,255); fill-rule: nonzero; opacity: 1;"  paint-order="stroke"  transform=" translate(0.000500000000000167, 2.8739999999999997)" d="M 0 0 L 0.536 -2.44 L 3.021 -2.195 L 0.867 -3.4589999999999996 L 1.867 -5.747999999999999 L 0 -4.0889999999999995 L -1.868 -5.747999999999999 L -0.8670000000000002 -3.458999999999999 L -3.0220000000000002 -2.1949999999999994 L -0.536 -2.4399999999999995 z" stroke-linecap="round" />
</g>
		<g transform="matrix(0.36373638570164396 0 0 -0.363736385701644 53.264246871160196 -80.95888066301339)"  >
<path style="stroke: none; stroke-width: 1; stroke-dasharray: none; stroke-linecap: butt; stroke-dashoffset: 0; stroke-linejoin: miter; stroke-miterlimit: 4; fill: rgb(255,255,255); fill-rule: nonzero; opacity: 1;"  paint-order="stroke"  transform=" translate(0, 6.0600000000000005)" d="M 0 0 L 1.129 -5.145 L 6.372 -4.629 L 1.827 -7.294 L 3.938 -12.12 L 0 -8.622 L -3.938 -12.120000000000001 L -1.8280000000000003 -7.294000000000001 L -6.372 -4.629000000000001 L -1.13 -5.145000000000001 z" stroke-linecap="round" />
</g>
		<g transform="matrix(0.36373638570164396 0 0 -0.363736385701644 56.72010627171153 -34.329258214328235)"  >
<path style="stroke: none; stroke-width: 1; stroke-dasharray: none; stroke-linecap: butt; stroke-dashoffset: 0; stroke-linejoin: miter; stroke-miterlimit: 4; fill: rgb(255,255,255); fill-rule: nonzero; opacity: 1;"  paint-order="stroke"  transform=" translate(0, 9.5165)" d="M 0 0 L 1.774 -8.079 L 10.006 -7.2700000000000005 L 2.8710000000000004 -11.454 L 6.1850000000000005 -19.033 L 8.881784197001252e-16 -13.539000000000001 L -6.183999999999999 -19.033 L -2.869999999999999 -11.454 L -10.006 -7.2700000000000005 L -1.7729999999999997 -8.079 z" stroke-linecap="round" />
</g>
		<g transform="matrix(0.36373638570164396 0 0 -0.363736385701644 98.18248962511893 -45.09487314285553)"  >
<path style="stroke: none; stroke-width: 1; stroke-dasharray: none; stroke-linecap: butt; stroke-dashoffset: 0; stroke-linejoin: miter; stroke-miterlimit: 4; fill: rgb(255,255,255); fill-rule: nonzero; opacity: 1;"  paint-order="stroke"  transform=" translate(0, 5.717)" d="M 0 0 L 1.065 -4.854 L 6.011 -4.367 L 1.725 -6.88 L 3.715 -11.434 L 0 -8.133 L -3.715 -11.434 L -1.7249999999999999 -6.879999999999999 L -6.010999999999999 -4.366999999999999 L -1.0649999999999995 -4.853999999999999 z" stroke-linecap="round" />
</g>
		<g transform="matrix(0.36373638570164396 0 0 -0.363736385701644 -6.49916899243982 -108.49052418043365)"  >
<path style="stroke: none; stroke-width: 1; stroke-dasharray: none; stroke-linecap: butt; stroke-dashoffset: 0; stroke-linejoin: miter; stroke-miterlimit: 4; fill: rgb(255,255,255); fill-rule: nonzero; opacity: 1;"  paint-order="stroke"  transform=" translate(0, 5.881500000000001)" d="M 0 0 L 1.096 -4.993 L 6.184 -4.493 L 1.774 -7.079000000000001 L 3.822 -11.763000000000002 L 0 -8.368000000000002 L -3.822 -11.763000000000002 L -1.774 -7.0790000000000015 L -6.184 -4.493000000000002 L -1.0970000000000004 -4.993000000000002 z" stroke-linecap="round" />
</g>
		<g transform="matrix(0.36373638570164396 0 0 -0.363736385701644 -63.85886932476916 -74.88866599023146)"  >
<path style="stroke: none; stroke-width: 1; stroke-dasharray: none; stroke-linecap: butt; stroke-dashoffset: 0; stroke-linejoin: miter; stroke-miterlimit: 4; fill: rgb(255,255,255); fill-rule: nonzero; opacity: 1;"  paint-order="stroke"  transform=" translate(2.9995000000000003, 0)" d="M 0 0 C 0 1.657 -1.343 3 -3 3 C -4.656 3 -5.9990000000000006 1.657 -5.9990000000000006 0 C -5.9990000000000006 -1.657 -4.656000000000001 -3 -3.0000000000000004 -3 C -1.3430000000000004 -3 -4.440892098500626e-16 -1.657 -4.440892098500626e-16 0" stroke-linecap="round" />
</g>
		<g transform="matrix(0.36373638570164396 0 0 -0.363736385701644 70.62538456069962 -52.04201986792552)"  >
<path style="stroke: none; stroke-width: 1; stroke-dasharray: none; stroke-linecap: butt; stroke-dashoffset: 0; stroke-linejoin: miter; stroke-miterlimit: 4; fill: rgb(255,255,255); fill-rule: nonzero; opacity: 1;"  paint-order="stroke"  transform=" translate(2.9995000000000003, 0)" d="M 0 0 C 0 1.657 -1.343 3 -3 3 C -4.656 3 -5.9990000000000006 1.657 -5.9990000000000006 0 C -5.9990000000000006 -1.657 -4.656000000000001 -3 -3.0000000000000004 -3 C -1.3430000000000004 -3 -4.440892098500626e-16 -1.657 -4.440892098500626e-16 0" stroke-linecap="round" />
</g>
		<g transform="matrix(0.36373638570164396 0 0 -0.363736385701644 -99.5746542677536 -25.450016555688308)"  >
<path style="stroke: none; stroke-width: 1; stroke-dasharray: none; stroke-linecap: butt; stroke-dashoffset: 0; stroke-linejoin: miter; stroke-miterlimit: 4; fill: rgb(255,255,255); fill-rule: nonzero; opacity: 1;"  paint-order="stroke"  transform=" translate(2.357, 0)" d="M 0 0 C 0 1.302 -1.055 2.357 -2.357 2.357 C -3.6590000000000003 2.357 -4.714 1.3020000000000003 -4.714 0 C -4.714 -1.302 -3.6590000000000007 -2.357 -2.357 -2.357 C -1.055 -2.357 0 -1.302 0 0" stroke-linecap="round" />
</g>
		<g transform="matrix(0.36373638570164396 0 0 -0.363736385701644 -53.03254679346827 -31.96991852211312)"  >
<path style="stroke: none; stroke-width: 1; stroke-dasharray: none; stroke-linecap: butt; stroke-dashoffset: 0; stroke-linejoin: miter; stroke-miterlimit: 4; fill: rgb(255,255,255); fill-rule: nonzero; opacity: 1;"  paint-order="stroke"  transform=" translate(4.2705, 0)" d="M 0 0 C 0 2.358 -1.912 4.271 -4.271 4.271 C -6.629 4.271 -8.541 2.3579999999999997 -8.541 0 C -8.541 -2.358 -6.6290000000000004 -4.271 -4.271000000000001 -4.271 C -1.912 -4.271 0 -2.358 0 0" stroke-linecap="round" />
</g>
		<g transform="matrix(0.36373638570164396 0 0 -0.363736385701644 82.64152518326921 -29.889782879562574)"  >
<path style="stroke: none; stroke-width: 1; stroke-dasharray: none; stroke-linecap: butt; stroke-dashoffset: 0; stroke-linejoin: miter; stroke-miterlimit: 4; fill: rgb(255,255,255); fill-rule: nonzero; opacity: 1;"  paint-order="stroke"  transform=" translate(3.682, 0)" d="M 0 0 C 0 2.034 -1.648 3.683 -3.682 3.683 C -5.715999999999999 3.683 -7.364 2.034 -7.364 0 C -7.364 -2.034 -5.716 -3.683 -3.682 -3.683 C -1.648 -3.683 0 -2.034 0 0" stroke-linecap="round" />
</g>
		<g transform="matrix(0.36373638570164396 0 0 -0.363736385701644 -42.635251329102516 -59.47606411889569)"  >
<path style="stroke: none; stroke-width: 1; stroke-dasharray: none; stroke-linecap: butt; stroke-dashoffset: 0; stroke-linejoin: miter; stroke-miterlimit: 4; fill: rgb(255,255,255); fill-rule: nonzero; opacity: 1;"  paint-order="stroke"  transform=" translate(2.1765, 0)" d="M 0 0 C 0 1.202 -0.974 2.176 -2.176 2.176 C -3.378 2.176 -4.353 1.2020000000000002 -4.353 0 C -4.353 -1.202 -3.3779999999999997 -2.176 -2.1759999999999997 -2.176 C -0.974 -2.176 0 -1.202 0 0" stroke-linecap="round" />
</g>
		<g transform="matrix(0.36373638570164396 0 0 -0.363736385701644 -1.6999219985767127 -17.925947549256932)"  >
<path style="stroke: none; stroke-width: 1; stroke-dasharray: none; stroke-linecap: butt; stroke-dashoffset: 0; stroke-linejoin: miter; stroke-miterlimit: 4; fill: rgb(192,54,45); fill-rule: nonzero; opacity: 1;"  paint-order="stroke"  transform=" translate(-2.7045, 12.807499999999997)" d="M 0 0 L 0 -25.616 L 0 -33.839 L 5.409 -33.839 L 5.409 -25.616 L 5.409 0 L 5.409 8.224 L 0 8.224 Z" stroke-linecap="round" />
</g>
		<g transform="matrix(0.36373638570164396 0 0 -0.363736385701644 -1.6999219985767127 20.277212293709596)"  >
<path style="stroke: none; stroke-width: 1; stroke-dasharray: none; stroke-linecap: butt; stroke-dashoffset: 0; stroke-linejoin: miter; stroke-miterlimit: 4; fill: rgb(192,54,45); fill-rule: nonzero; opacity: 1;"  paint-order="stroke"  transform=" translate(-2.7045, 12.807499999999997)" d="M 0 0 L 0 -25.615 L 0 -33.839 L 5.409 -33.839 L 5.409 -25.615 L 5.409 0 L 5.409 8.224 L 0 8.224 Z" stroke-linecap="round" />
</g>
		<g transform="matrix(0.36373638570164396 0 0 -0.363736385701644 -1.6999583722151783 -56.12907101858491)"  >
<path style="stroke: none; stroke-width: 1; stroke-dasharray: none; stroke-linecap: butt; stroke-dashoffset: 0; stroke-linejoin: miter; stroke-miterlimit: 4; fill: rgb(192,54,45); fill-rule: nonzero; opacity: 1;"  paint-order="stroke"  transform=" translate(-495.3265, -654.3125)" d="M 492.622 633.281 L 498.031 633.281 L 498.031 675.3439999999999 L 492.622 675.3439999999999 z" stroke-linecap="round" />
</g>
		<g transform="matrix(0.36373638570164396 0 0 -0.363736385701644 -5.10907764720389 -56.12907101858491)"  >
<path style="stroke: none; stroke-width: 1; stroke-dasharray: none; stroke-linecap: butt; stroke-dashoffset: 0; stroke-linejoin: miter; stroke-miterlimit: 4; fill: rgb(192,54,45); fill-rule: nonzero; opacity: 1;"  paint-order="stroke"  transform=" translate(-485.954, -654.3125)" d="M 483.25 633.281 L 488.658 633.281 L 488.658 675.3439999999999 L 483.25 675.3439999999999 z" stroke-linecap="round" />
</g>
		<g transform="matrix(0.36373638570164396 0 0 -0.363736385701644 -5.1090776472039465 -17.925947549256932)"  >
<path style="stroke: none; stroke-width: 1; stroke-dasharray: none; stroke-linecap: butt; stroke-dashoffset: 0; stroke-linejoin: miter; stroke-miterlimit: 4; fill: rgb(192,54,45); fill-rule: nonzero; opacity: 1;"  paint-order="stroke"  transform=" translate(-2.704, 12.807499999999997)" d="M 0 0 L 0 -25.616 L 0 -33.839 L 5.408 -33.839 L 5.408 -25.616 L 5.408 0 L 5.408 8.224 L 0 8.224 Z" stroke-linecap="round" />
</g>
		<g transform="matrix(0.36373638570164396 0 0 -0.363736385701644 -5.1090776472039465 20.277212293709596)"  >
<path style="stroke: none; stroke-width: 1; stroke-dasharray: none; stroke-linecap: butt; stroke-dashoffset: 0; stroke-linejoin: miter; stroke-miterlimit: 4; fill: rgb(192,54,45); fill-rule: nonzero; opacity: 1;"  paint-order="stroke"  transform=" translate(-2.704, 12.807499999999997)" d="M 0 0 L 0 -25.615 L 0 -33.839 L 5.408 -33.839 L 5.408 -25.615 L 5.408 0 L 5.408 8.224 L 0 8.224 Z" stroke-linecap="round" />
</g>
		<g transform="matrix(0.36373638570164396 0 0 -0.363736385701644 1.708833540026319 20.277212293709596)"  >
<path style="stroke: none; stroke-width: 1; stroke-dasharray: none; stroke-linecap: butt; stroke-dashoffset: 0; stroke-linejoin: miter; stroke-miterlimit: 4; fill: rgb(192,54,45); fill-rule: nonzero; opacity: 1;"  paint-order="stroke"  transform=" translate(-2.704, 12.807499999999997)" d="M 0 0 L 0 -25.615 L 0 -33.839 L 5.408 -33.839 L 5.408 -25.615 L 5.408 0 L 5.408 8.224 L 0 8.224 Z" stroke-linecap="round" />
</g>
		<g transform="matrix(0.36373638570164396 0 0 -0.363736385701644 8.526781100894993 -15.699153395991402)"  >
<path style="stroke: none; stroke-width: 1; stroke-dasharray: none; stroke-linecap: butt; stroke-dashoffset: 0; stroke-linejoin: miter; stroke-miterlimit: 4; fill: rgb(192,54,45); fill-rule: nonzero; opacity: 1;"  paint-order="stroke"  transform=" translate(-2.704, 18.929500000000004)" d="M 0 0 L 0 -25.616 L 0 -34.191 C 1.237 -34.772000000000006 2.099 -36.019000000000005 2.099 -37.476 L 2.099 -43.938 C 3.5740000000000003 -43.938 4.839 -44.821000000000005 5.408 -46.083000000000006 L 5.408 -25.616 L 5.408 0 L 5.408 8.224 L 0 8.224 Z" stroke-linecap="round" />
</g>
		<g transform="matrix(0.36373638570164396 0 0 -0.363736385701644 -8.518051427638284 -53.902131370765176)"  >
<path style="stroke: none; stroke-width: 1; stroke-dasharray: none; stroke-linecap: butt; stroke-dashoffset: 0; stroke-linejoin: miter; stroke-miterlimit: 4; fill: rgb(192,54,45); fill-rule: nonzero; opacity: 1;"  paint-order="stroke"  transform=" translate(-2.7039999999999997, -27.1535)" d="M 0 0 C 0.57 1.263 1.834 2.145 3.31 2.145 L 3.31 8.607 C 3.31 10.064 4.171 11.312 5.4079999999999995 11.892 L 5.4079999999999995 54.307 L 0 54.307 Z" stroke-linecap="round" />
</g>
		<g transform="matrix(0.36373638570164396 0 0 -0.363736385701644 1.708833540026319 -17.925947549256932)"  >
<path style="stroke: none; stroke-width: 1; stroke-dasharray: none; stroke-linecap: butt; stroke-dashoffset: 0; stroke-linejoin: miter; stroke-miterlimit: 4; fill: rgb(192,54,45); fill-rule: nonzero; opacity: 1;"  paint-order="stroke"  transform=" translate(-2.704, 12.807499999999997)" d="M 0 0 L 0 -25.616 L 0 -33.839 L 5.408 -33.839 L 5.408 -25.616 L 5.408 0 L 5.408 8.224 L 0 8.224 Z" stroke-linecap="round" />
</g>
		<g transform="matrix(0.36373638570164396 0 0 -0.363736385701644 8.526781100894993 22.50400644697504)"  >
<path style="stroke: none; stroke-width: 1; stroke-dasharray: none; stroke-linecap: butt; stroke-dashoffset: 0; stroke-linejoin: miter; stroke-miterlimit: 4; fill: rgb(192,54,45); fill-rule: nonzero; opacity: 1;"  paint-order="stroke"  transform=" translate(-2.704, 18.929500000000004)" d="M 0 0 L 0 -25.615 L 0 -34.191 C 1.237 -34.771 2.099 -36.02 2.099 -37.476 L 2.099 -43.938 C 3.5740000000000003 -43.938 4.839 -44.82 5.408 -46.083000000000006 L 5.408 -25.615 L 5.408 0 L 5.408 8.224 L 0 8.224 Z" stroke-linecap="round" />
</g>
		<g transform="matrix(0.36373638570164396 0 0 -0.363736385701644 8.526781100894993 -53.902167744403755)"  >
<path style="stroke: none; stroke-width: 1; stroke-dasharray: none; stroke-linecap: butt; stroke-dashoffset: 0; stroke-linejoin: miter; stroke-miterlimit: 4; fill: rgb(192,54,45); fill-rule: nonzero; opacity: 1;"  paint-order="stroke"  transform=" translate(-2.704, -15.261500000000002)" d="M 0 0 C 1.237 -0.581 2.099 -1.828 2.099 -3.285 L 2.099 -9.747 C 3.5740000000000003 -9.747 4.839 -10.629 5.408 -11.892 L 5.408 42.415000000000006 L 0 42.415000000000006 z" stroke-linecap="round" />
</g>
		<g transform="matrix(0.36373638570164396 0 0 -0.363736385701644 5.117734573183498 -56.12907101858491)"  >
<path style="stroke: none; stroke-width: 1; stroke-dasharray: none; stroke-linecap: butt; stroke-dashoffset: 0; stroke-linejoin: miter; stroke-miterlimit: 4; fill: rgb(192,54,45); fill-rule: nonzero; opacity: 1;"  paint-order="stroke"  transform=" translate(-514.0699999999999, -654.3125)" d="M 511.366 633.281 L 516.774 633.281 L 516.774 675.3439999999999 L 511.366 675.3439999999999 z" stroke-linecap="round" />
</g>
		<g transform="matrix(0.36373638570164396 0 0 -0.363736385701644 1.7087971663876829 -56.12907101858491)"  >
<path style="stroke: none; stroke-width: 1; stroke-dasharray: none; stroke-linecap: butt; stroke-dashoffset: 0; stroke-linejoin: miter; stroke-miterlimit: 4; fill: rgb(192,54,45); fill-rule: nonzero; opacity: 1;"  paint-order="stroke"  transform=" translate(-504.69800000000004, -654.3125)" d="M 501.994 633.281 L 507.40200000000004 633.281 L 507.40200000000004 675.3439999999999 L 501.994 675.3439999999999 z" stroke-linecap="round" />
</g>
		<g transform="matrix(0.36373638570164396 0 0 -0.363736385701644 5.117807320460656 20.277212293709596)"  >
<path style="stroke: none; stroke-width: 1; stroke-dasharray: none; stroke-linecap: butt; stroke-dashoffset: 0; stroke-linejoin: miter; stroke-miterlimit: 4; fill: rgb(192,54,45); fill-rule: nonzero; opacity: 1;"  paint-order="stroke"  transform=" translate(-2.704, 12.807499999999997)" d="M 0 0 L 0 -25.615 L 0 -33.839 L 5.408 -33.839 L 5.408 -25.615 L 5.408 0 L 5.408 8.224 L 0 8.224 Z" stroke-linecap="round" />
</g>
		<g transform="matrix(0.36373638570164396 0 0 -0.363736385701644 5.117807320460656 -17.925947549256932)"  >
<path style="stroke: none; stroke-width: 1; stroke-dasharray: none; stroke-linecap: butt; stroke-dashoffset: 0; stroke-linejoin: miter; stroke-miterlimit: 4; fill: rgb(192,54,45); fill-rule: nonzero; opacity: 1;"  paint-order="stroke"  transform=" translate(-2.704, 12.807499999999997)" d="M 0 0 L 0 -25.616 L 0 -33.839 L 5.408 -33.839 L 5.408 -25.616 L 5.408 0 L 5.408 8.224 L 0 8.224 Z" stroke-linecap="round" />
</g>
		<g transform="matrix(0.36373638570164396 0 0 -0.363736385701644 -38.26310359933018 19.825415329029568)"  >
<path style="stroke: none; stroke-width: 1; stroke-dasharray: none; stroke-linecap: butt; stroke-dashoffset: 0; stroke-linejoin: miter; stroke-miterlimit: 4; fill: rgb(192,54,45); fill-rule: nonzero; opacity: 1;"  paint-order="stroke"  transform=" translate(-3.5145, -71.8115)" d="M 0 0 C 2.165 -3.519 4.18 -7.128 6.014 -10.823 C 6.352 -10.771 6.69 -10.728 7.029 -10.678 L 7.029 154.446 C 4.743 150.058 2.404 145.702 0 141.386 Z" stroke-linecap="round" />
</g>
		<g transform="matrix(0.36373638570164396 0 0 -0.363736385701644 -29.265247505312914 9.575142111764421)"  >
<path style="stroke: none; stroke-width: 1; stroke-dasharray: none; stroke-linecap: butt; stroke-dashoffset: 0; stroke-linejoin: miter; stroke-miterlimit: 4; fill: rgb(192,54,45); fill-rule: nonzero; opacity: 1;"  paint-order="stroke"  transform=" translate(-3.5145, 91.9015)" d="M 0 0 L 0 -201.086 C 1.087 -201.062 2.173 -201.04600000000002 3.259 -201.04600000000002 C 4.516 -201.04600000000002 5.773 -201.068 7.029 -201.103 L 7.029 17.3 C 4.989 12.012 2.869 6.756 0.662 1.54 C 0.444 1.025 0.219 0.514 0 0" stroke-linecap="round" />
</g>
		<g transform="matrix(0.36373638570164396 0 0 -0.363736385701644 -8.518051427638284 -15.699153395991402)"  >
<path style="stroke: none; stroke-width: 1; stroke-dasharray: none; stroke-linecap: butt; stroke-dashoffset: 0; stroke-linejoin: miter; stroke-miterlimit: 4; fill: rgb(192,54,45); fill-rule: nonzero; opacity: 1;"  paint-order="stroke"  transform=" translate(-2.7039999999999997, 18.929499999999997)" d="M 0 0 L 0 -25.616 L 0 -46.083 C 0.57 -44.821 1.834 -43.937999999999995 3.31 -43.937999999999995 L 3.31 -37.476 C 3.31 -36.019 4.171 -34.772 5.4079999999999995 -34.191 L 5.4079999999999995 -25.616 L 5.4079999999999995 0 L 5.4079999999999995 8.224 L 0 8.224 Z" stroke-linecap="round" />
</g>
		<g transform="matrix(0.36373638570164396 0 0 -0.363736385701644 -47.26132342973318 21.4156708073171)"  >
<path style="stroke: none; stroke-width: 1; stroke-dasharray: none; stroke-linecap: butt; stroke-dashoffset: 0; stroke-linejoin: miter; stroke-miterlimit: 4; fill: rgb(192,54,45); fill-rule: nonzero; opacity: 1;"  paint-order="stroke"  transform=" translate(-3.514, -37.6075)" d="M 0 0 C 2.422 -2.197 4.769 -4.479 7.028 -6.848 L 7.028 82.063 C 4.729 78.498 2.385 74.96 0 71.45 Z" stroke-linecap="round" />
</g>
		<g transform="matrix(0.36373638570164396 0 0 -0.363736385701644 -42.635069460909676 -25.45001655568825)"  >
<path style="stroke: none; stroke-width: 1; stroke-dasharray: none; stroke-linecap: butt; stroke-dashoffset: 0; stroke-linejoin: miter; stroke-miterlimit: 4; fill: rgb(192,54,45); fill-rule: nonzero; opacity: 1;"  paint-order="stroke"  transform=" translate(68.92649999999998, 205.41399999999996)" d="M 0 0 L -3.899 0 L -3.899 4.021 L -6.644 4.021 L -6.644 0 L -10.543 0 C -10.543 -2.159 -10.556999999999999 -4.316 -10.582999999999998 -6.472 L -11.483999999999998 -7.930000000000001 L -11.483999999999998 -31.518 C -14.986999999999998 -90.249 -28.301 -147.268 -51.206 -201.42 C -72.84400000000001 -252.57799999999997 -102.243 -299.402 -138.79399999999998 -341.025 C -138.75699999999998 -341.352 -138.71499999999997 -341.67699999999996 -138.68099999999998 -342.00399999999996 C -135.272 -342.991 -131.902 -344.114 -128.57899999999998 -345.36699999999996 C -92.34099999999998 -303.554 -63.122999999999976 -256.66099999999994 -41.49599999999998 -205.52799999999996 C -28.409999999999982 -174.58999999999997 -18.39699999999998 -142.73599999999996 -11.48399999999998 -110.17599999999996 L -11.48399999999998 -412.42099999999994 C -7.30799999999998 -413.0469999999999 -3.1619999999999813 -413.8589999999999 0.9410000000000203 -414.84899999999993 L 0.9410000000000203 -7.93 L -0.03899999999997972 -6.345 C -0.014 -4.231 0 -2.117 0 0" stroke-linecap="round" />
</g>
		<g transform="matrix(0.36373638570164396 0 0 -0.363736385701644 -56.25917952375045 24.0940073097926)"  >
<path style="stroke: none; stroke-width: 1; stroke-dasharray: none; stroke-linecap: butt; stroke-dashoffset: 0; stroke-linejoin: miter; stroke-miterlimit: 4; fill: rgb(192,54,45); fill-rule: nonzero; opacity: 1;"  paint-order="stroke"  transform=" translate(-3.5145, -12.456)" d="M 0 0 C 2.383 -1.336 4.73 -2.737 7.029 -4.215 L 7.029 29.127 C 4.721 26.115 2.375 23.13 0 20.165 Z" stroke-linecap="round" />
</g>
		<g transform="matrix(0.36373638570164396 0 0 -0.363736385701644 0.004473957544064433 -19.381693312112077)"  >
<path style="stroke: none; stroke-width: 1; stroke-dasharray: none; stroke-linecap: butt; stroke-dashoffset: 0; stroke-linejoin: miter; stroke-miterlimit: 4; fill: rgb(192,54,45); fill-rule: nonzero; opacity: 1;"  paint-order="stroke"  transform=" translate(30.098000000000006, 148.10899999999998)" d="M 0 0 L 0 -22.414 L 0 -22.416 L 0 -95.258 L 0 -105.03 L 0 -127.443 L 0 -139.304 L 0 -164.919 L 0 -200.287 L 0 -210.059 L 0 -232.473 L 0 -244.33300000000003 L 0 -269.949 L 0 -305.317 L 0 -315.089 L 0 -329.219 L 0 -337.502 C 0 -339.511 -1.628 -341.139 -3.637 -341.139 L -56.56 -341.139 C -58.568000000000005 -341.139 -60.196000000000005 -339.511 -60.196000000000005 -337.502 L -60.196000000000005 -329.219 L -60.196000000000005 -315.089 L -60.196000000000005 -305.317 L -60.196000000000005 -269.949 L -60.196000000000005 -244.33300000000003 L -60.196000000000005 -232.473 L -60.196000000000005 -210.05900000000003 L -60.196000000000005 -200.28700000000003 L -60.196000000000005 -164.91900000000004 L -60.196000000000005 -139.30400000000003 L -60.196000000000005 -127.44300000000003 L -60.196000000000005 -105.03000000000003 L -60.196000000000005 -95.25800000000002 L -60.196000000000005 -22.416000000000025 L -60.196000000000005 -22.416000000000025 C -60.196000000000005 -22.415000000000024 -60.196000000000005 -22.415000000000024 -60.196000000000005 -22.414000000000026 L -60.196000000000005 0 L -60.196000000000005 9.772 C -60.196000000000005 11.781 -58.568000000000005 13.409 -56.56 13.409 L -56.56 23.181 C -56.56 25.189 -54.931000000000004 26.817 -52.923 26.817 L -52.923 33.28 C -52.923 35.288000000000004 -51.294000000000004 36.917 -49.286 36.917 L -10.910000000000004 36.917 C -8.901000000000003 36.917 -7.273000000000003 35.288000000000004 -7.273000000000003 33.28 L -7.273000000000003 26.817 C -5.265000000000003 26.817 -3.637000000000003 25.189 -3.637000000000003 23.181 L -3.637000000000003 13.409 C -1.628 13.409 0 11.781 0 9.772 Z M 0 61.276 C 0 59.268 -1.628 57.64 -3.637 57.64 L -56.56 57.64 C -58.568000000000005 57.64 -60.196000000000005 59.268 -60.196000000000005 61.276 L -60.196000000000005 66.058 L -72.388 66.058 L -72.388 -342.181 C -57.114000000000004 -346.45799999999997 -42.548 -353.239 -29.47800000000001 -362.27599999999995 C -16.99000000000001 -354.13599999999997 -2.744000000000007 -349.54799999999994 12.191999999999993 -348.84 L 12.191999999999993 66.058 L 0 66.058 Z" stroke-linecap="round" />
</g>
		<g transform="matrix(0.36373638570164396 0 0 -0.363736385701644 38.55114644316723 -23.820695789576376)"  >
<path style="stroke: none; stroke-width: 1; stroke-dasharray: none; stroke-linecap: butt; stroke-dashoffset: 0; stroke-linejoin: miter; stroke-miterlimit: 4; fill: rgb(192,54,45); fill-rule: nonzero; opacity: 1;"  paint-order="stroke"  transform=" translate(-6.467999999999996, 8.473000000000013)" d="M 0 0 C -22.906 54.155 -36.22 111.177 -39.722 169.91 L -39.722 193.49 L -40.609 194.925 C -40.637 197.089 -40.663000000000004 199.252 -40.663000000000004 201.42000000000002 L -44.563 201.42000000000002 L -44.563 205.441 L -47.308 205.441 L -47.308 201.42000000000002 L -51.206 201.42000000000002 C -51.206 199.31 -51.181000000000004 197.203 -51.155 195.096 L -52.147 193.49 L -52.147 -221.313 C -47.971 -221.363 -43.82 -221.72199999999998 -39.721999999999994 -222.387 L -39.721999999999994 91.247 C -32.809999999999995 58.685 -22.795999999999996 26.831000000000003 -9.710999999999995 -4.106999999999999 C 8.539000000000005 -47.254 32.194 -87.382 60.91 -123.985 C 62.06699999999999 -119.93 63.461999999999996 -115.978 65.083 -112.146 C 38.795 -77.721 17.002 -40.197 0 0" stroke-linecap="round" />
</g>
		<g transform="matrix(0.36373638570164396 0 0 -0.363736385701644 -8.518051427638284 22.50400644697504)"  >
<path style="stroke: none; stroke-width: 1; stroke-dasharray: none; stroke-linecap: butt; stroke-dashoffset: 0; stroke-linejoin: miter; stroke-miterlimit: 4; fill: rgb(192,54,45); fill-rule: nonzero; opacity: 1;"  paint-order="stroke"  transform=" translate(-2.7039999999999997, 18.929499999999997)" d="M 0 0 L 0 -25.615 L 0 -46.083 C 0.57 -44.82 1.834 -43.937999999999995 3.31 -43.937999999999995 L 3.31 -37.476 C 3.31 -36.019999999999996 4.171 -34.771 5.4079999999999995 -34.191 L 5.4079999999999995 -25.615 L 5.4079999999999995 0 L 5.4079999999999995 8.224 L 0 8.224 Z" stroke-linecap="round" />
</g>
		<g transform="matrix(0.36373638570164396 0 0 -0.363736385701644 56.267872823368634 21.740414652471543)"  >
<path style="stroke: none; stroke-width: 1; stroke-dasharray: none; stroke-linecap: butt; stroke-dashoffset: 0; stroke-linejoin: miter; stroke-miterlimit: 4; fill: rgb(192,54,45); fill-rule: nonzero; opacity: 1;"  paint-order="stroke"  transform=" translate(-3.5145, -10.201)" d="M 0 0 C 1.912 0.634 3.836 1.241 5.783 1.795 C 6.0760000000000005 4.737 6.497 7.639 7.029 10.499 L 7.029 11.44 C 4.654 14.405 2.309 17.391 0 20.402 Z" stroke-linecap="round" />
</g>
		<g transform="matrix(0.36373638570164396 0 0 -0.363736385701644 38.2721606353341 12.801374732022254)"  >
<path style="stroke: none; stroke-width: 1; stroke-dasharray: none; stroke-linecap: butt; stroke-dashoffset: 0; stroke-linejoin: miter; stroke-miterlimit: 4; fill: rgb(192,54,45); fill-rule: nonzero; opacity: 1;"  paint-order="stroke"  transform=" translate(-3.5145, -63.3235)" d="M 0 0 C 2.277 2.025 4.625 3.971 7.029 5.845 L 7.029 113.587 C 4.625 117.904 2.286 122.26 0 126.647 Z" stroke-linecap="round" />
</g>
		<g transform="matrix(0.36373638570164396 0 0 -0.363736385701644 29.273940804931158 8.084623150436158)"  >
<path style="stroke: none; stroke-width: 1; stroke-dasharray: none; stroke-linecap: butt; stroke-dashoffset: 0; stroke-linejoin: miter; stroke-miterlimit: 4; fill: rgb(192,54,45); fill-rule: nonzero; opacity: 1;"  paint-order="stroke"  transform=" translate(-3.5145, 105.105)" d="M 0 0 L 0 -210.21 C 2.207 -206.809 4.553 -203.513 7.029 -200.329 L 7.029 -17.3 C 6.81 -16.787 6.585 -16.276 6.367 -15.762 C 4.161 -10.544 2.04 -5.288 0 0" stroke-linecap="round" />
</g>
		<g transform="matrix(0.36373638570164396 0 0 -0.363736385701644 47.270198597544265 17.33425757063617)"  >
<path style="stroke: none; stroke-width: 1; stroke-dasharray: none; stroke-linecap: butt; stroke-dashoffset: 0; stroke-linejoin: miter; stroke-miterlimit: 4; fill: rgb(192,54,45); fill-rule: nonzero; opacity: 1;"  paint-order="stroke"  transform=" translate(-3.514, -33.2365)" d="M 0 0 C 2.304 1.294 4.647 2.524 7.028 3.691 L 7.028 55.859 C 4.643 59.369 2.3 62.907 0 66.473 Z" stroke-linecap="round" />
</g>
		<g transform="matrix(0.36373638570164396 0 0 -0.363736385701644 -84.09883501258287 31.58985037269352)"  >
<path style="stroke: none; stroke-width: 1; stroke-dasharray: none; stroke-linecap: butt; stroke-dashoffset: 0; stroke-linejoin: miter; stroke-miterlimit: 4; fill: rgb(59,13,96); fill-rule: nonzero; opacity: 1;"  paint-order="stroke"  transform=" translate(107.16899999999998, -62.66350000000001)" d="M 0 0 C -13.8 -4.638 -26.862 -11.538 -38.758 -20.567 C -39.363 -21.037 -39.968 -21.53 -40.596000000000004 -22.023 C -51.529 6.564 -70.572 32.037000000000006 -95.082 50.63300000000001 C -123.916 72.52100000000002 -158.35 84.10400000000001 -194.64499999999998 84.10400000000001 C -199.349 84.10400000000001 -204.03199999999998 83.88000000000001 -208.69199999999998 83.47700000000002 C -211.44699999999997 97.36700000000002 -213.35199999999998 111.57100000000003 -214.33799999999997 125.99900000000002 L -212.14199999999997 128.01600000000002 C -198.34099999999998 140.472 -180.50799999999998 147.35000000000002 -161.91299999999995 147.35000000000002 C -120.59999999999995 147.35000000000002 -86.99399999999996 113.74400000000003 -86.99399999999996 72.45400000000002 C -86.99399999999996 72.07300000000002 -87.01699999999995 71.69200000000002 -87.03899999999996 71.31200000000003 L -87.23999999999995 63.066000000000024 L -79.91499999999995 61.678000000000026 C -44.068 54.867 -14.943 31.275 0 0" stroke-linecap="round" />
</g>
		<g transform="matrix(0.36373638570164396 0 0 -0.363736385701644 57.59765667585532 83.91936747987768)"  >
<path style="stroke: none; stroke-width: 1; stroke-dasharray: none; stroke-linecap: butt; stroke-dashoffset: 0; stroke-linejoin: miter; stroke-miterlimit: 4; fill: rgb(59,13,96); fill-rule: nonzero; opacity: 1;"  paint-order="stroke"  transform=" translate(151.41649999999998, 92.5615)" d="M 0 0 C -52.044 -116.275 -167.67 -198.072 -302.385 -200.963 C -296.918 -186.646 -293.871 -171.12 -293.871 -154.878 C -293.871 -138.18699999999998 -297.053 -122.23499999999999 -302.83299999999997 -107.56099999999998 C -287.17299999999994 -81.59499999999997 -258.69699999999995 -64.18699999999998 -226.23399999999998 -64.18699999999998 C -211.73899999999998 -64.18699999999998 -197.89299999999997 -67.56999999999998 -185.07799999999997 -74.22399999999999 L -175.60199999999998 -79.15199999999999 L -172.599 -68.91399999999999 C -165.51999999999998 -44.941999999999986 -150.576 -23.36699999999999 -130.547 -8.154999999999987 C -109.868 7.5270000000000135 -85.157 15.840000000000014 -59.123999999999995 15.840000000000014 C -38.266 15.84 -17.855 10.306 0 0" stroke-linecap="round" />
</g>
		<g transform="matrix(0.36373638570164396 0 0 -0.363736385701644 -60.111802573825116 76.74412166733407)"  >
<path style="stroke: none; stroke-width: 1; stroke-dasharray: none; stroke-linecap: butt; stroke-dashoffset: 0; stroke-linejoin: miter; stroke-miterlimit: 4; fill: rgb(59,13,96); fill-rule: nonzero; opacity: 1;"  paint-order="stroke"  transform=" translate(163.5705, -82.04299999999999)" d="M 0 0 C 0 -16.377 -3.562 -31.925 -9.925 -45.95 C -163.078 -40.774 -290.779 66.405 -327.141 209.65499999999997 C -323.75800000000004 209.87899999999996 -320.375 210.03599999999997 -316.992 210.03599999999997 C -284.552 210.03599999999997 -253.81300000000002 199.70799999999997 -228.04900000000004 180.17199999999997 C -203.11300000000003 161.23999999999998 -184.51800000000003 134.37899999999996 -175.71300000000002 104.51499999999997 L -172.68900000000002 94.29799999999997 L -163.234 99.20399999999998 C -147.193 107.56199999999998 -129.89800000000002 111.77299999999998 -111.77300000000001 111.77299999999998 C -50.14 111.773 0 61.633 0 0" stroke-linecap="round" />
</g>
		<g transform="matrix(0.36373638570164396 0 0 -0.363736385701644 -8.295808495974597 70.49382110999147)"  >
<path style="stroke: none; stroke-width: 1; stroke-dasharray: none; stroke-linecap: butt; stroke-dashoffset: 0; stroke-linejoin: miter; stroke-miterlimit: 4; fill: rgb(59,13,96); fill-rule: nonzero; opacity: 1;"  paint-order="stroke"  transform=" translate(87.229, 19.043999999999997)" d="M 0 0 C -0.896 -3.988 -1.636 -8.043 -2.173 -12.144 C -28.250999999999998 -17.431 -50.924 -32.239 -66.382 -52.762 C -88.36000000000001 -15.503999999999998 -128.46300000000002 9.835 -174.458 11.045000000000002 C -164.981 13.442000000000002 -155.168 14.674000000000001 -145.131 14.674000000000001 C -117.485 14.674000000000001 -90.57900000000001 4.9510000000000005 -69.407 -12.748 L -63.537 -17.654 L -57.868 -12.524000000000001 C -46.936 -2.644 -32.79900000000001 2.821999999999999 -18.057000000000002 2.821999999999999 C -11.762 2.822 -5.69 1.814 0 0" stroke-linecap="round" />
</g>
		<g transform="matrix(0.36373638570164396 0 0 -0.363736385701644 76.27959392915454 34.97579963991302)"  >
<path style="stroke: none; stroke-width: 1; stroke-dasharray: none; stroke-linecap: butt; stroke-dashoffset: 0; stroke-linejoin: miter; stroke-miterlimit: 4; fill: rgb(59,13,96); fill-rule: nonzero; opacity: 1;"  paint-order="stroke"  transform=" translate(129.35999999999999, 86.781)" d="M 0 0 C -1.076 -39.521 -8.962 -77.383 -22.494 -112.445 C -42.545 -101.333 -65.263 -95.37299999999999 -88.429 -95.37299999999999 C -118.338 -95.37299999999999 -146.724 -104.895 -170.493 -122.952 C -190.791 -138.344 -206.519 -159.471 -215.52499999999998 -183.151 C -228.18399999999997 -178.065 -241.84999999999997 -175.399 -255.539 -175.399 C -256.592 -175.399 -257.667 -175.422 -258.71999999999997 -175.444 C -250.58699999999996 -127.92599999999999 -213.73199999999997 -89.27899999999998 -165.11599999999999 -80.04899999999999 L -157.791 -78.63799999999999 L -157.97 -71.19899999999998 L -157.992 -70.36999999999999 C -158.015 -69.96699999999998 -158.015 -69.564 -158.015 -69.16099999999999 C -158.015 -25.74199999999999 -122.70599999999999 9.589000000000013 -79.28699999999999 9.589000000000013 C -59.72899999999999 9.589000000000013 -40.977999999999994 2.353000000000013 -26.481999999999992 -10.753999999999987 L -20.81299999999999 -15.884999999999987 L -14.94299999999999 -10.977999999999987 C -10.172 -7.013 -5.176 -3.338 0 0" stroke-linecap="round" />
</g>
		<g transform="matrix(0.36373638570164396 0 0 -0.363736385701644 -82.87988163681956 28.592553433596265)"  >
<path style="stroke: none; stroke-width: 1; stroke-dasharray: none; stroke-linecap: butt; stroke-dashoffset: 0; stroke-linejoin: miter; stroke-miterlimit: 4; fill: rgb(196,164,244); fill-rule: nonzero; opacity: 1;"  paint-order="stroke"  transform=" translate(4.20750000000001, -6.334499999999991)" d="M 0 0 C 0 -0.381 -0.022 -0.762 -0.045 -1.143 L -0.246 -9.387 L 7.08 -10.776 C 42.016999999999996 -17.414 70.53 -40.015 85.791 -70.111 C 90.303 -68.012 94.91 -66.149 99.61 -64.569 C 84.667 -33.294000000000004 55.542 -9.702000000000005 19.695999999999998 -2.892000000000003 L 12.369999999999997 -1.503000000000003 L 12.570999999999998 6.741999999999996 C 12.593999999999998 7.122999999999997 12.615999999999998 7.503999999999996 12.615999999999998 7.884999999999996 C 12.615999999999998 49.175 -20.988999999999997 82.77999999999999 -62.30200000000001 82.77999999999999 C -78.936 82.77999999999999 -94.952 77.26299999999999 -108.025 67.18499999999999 C -97.81400000000001 72.21999999999998 -86.515 74.89599999999999 -74.918 74.89599999999999 C -33.605 74.896 0 41.29 0 0" stroke-linecap="round" />
</g>
		<g transform="matrix(0.36373638570164396 0 0 -0.363736385701644 53.2641377502444 67.98273059766166)"  >
<path style="stroke: none; stroke-width: 1; stroke-dasharray: none; stroke-linecap: butt; stroke-dashoffset: 0; stroke-linejoin: miter; stroke-miterlimit: 4; fill: rgb(196,164,244); fill-rule: nonzero; opacity: 1;"  paint-order="stroke"  transform=" translate(32.783500000000004, 40.5925)" d="M 0 0 C -20.029 -15.212 -34.973 -36.787 -42.052 -60.759 L -45.055 -70.997 L -54.531 -66.068 C -67.346 -59.414 -81.19200000000001 -56.031 -95.68799999999999 -56.031 C -128.14999999999998 -56.031 -156.62599999999998 -73.439 -172.286 -99.405 C -171.536 -101.309 -170.835 -103.235 -170.174 -105.18 C -151.419 -85.47900000000001 -124.99600000000001 -73.14500000000001 -95.71900000000001 -73.14500000000001 C -79.03300000000002 -73.14500000000001 -63.09400000000001 -77.03800000000001 -48.34300000000001 -84.69800000000001 L -37.43400000000001 -90.37200000000001 L -33.97800000000001 -78.58600000000001 C -25.82800000000001 -50.991000000000014 -8.62700000000001 -26.155000000000015 14.429999999999993 -8.64500000000001 C 38.23299999999999 9.40799999999999 66.679 18.97699999999999 96.64699999999999 18.97699999999999 C 100.017 18.97699999999999 103.37499999999999 18.83799999999999 106.719 18.588999999999988 C 95.372 22.137 83.475 23.995 71.423 23.995 C 45.39 23.995 20.679 15.683 0 0" stroke-linecap="round" />
</g>
		<g transform="matrix(0.36373638570164396 0 0 -0.363736385701644 -60.111802573825116 72.9448951186805)"  >
<path style="stroke: none; stroke-width: 1; stroke-dasharray: none; stroke-linecap: butt; stroke-dashoffset: 0; stroke-linejoin: miter; stroke-miterlimit: 4; fill: rgb(196,164,244); fill-rule: nonzero; opacity: 1;"  paint-order="stroke"  transform=" translate(51.797500000000014, 19.285500000000013)" d="M 0 0 C -18.125 0 -35.42 -4.212 -51.461 -12.569 L -60.916 -17.476 L -63.94 -7.258999999999999 C -72.745 22.605000000000004 -91.34 49.467999999999996 -116.276 68.398 C -142.04 87.935 -172.779 98.26299999999999 -205.219 98.26299999999999 C -208.602 98.26299999999999 -211.98499999999999 98.106 -215.368 97.88199999999999 C -213.981 92.41999999999999 -212.446 87.01799999999999 -210.798 81.66399999999999 C -209.775 81.68999999999998 -208.75300000000001 81.72899999999998 -207.73 81.72899999999998 C -175.29 81.72899999999998 -144.551 71.39999999999998 -118.78699999999999 51.86399999999999 C -93.851 32.93399999999999 -75.256 6.070999999999991 -66.452 -23.793000000000006 L -63.427 -34.010000000000005 L -53.972 -29.103000000000005 C -37.931 -20.746000000000006 -20.636000000000003 -16.534000000000006 -2.511000000000003 -16.534000000000006 C 59.122 -16.534000000000006 109.262 -66.674 109.262 -128.308 C 109.262 -131.18 109.114 -134.017 108.899 -136.834 C 110.761 -128.774 111.773 -120.394 111.773 -111.773 C 111.773 -50.141 61.633 0 0 0" stroke-linecap="round" />
</g>
		<g transform="matrix(0.36373638570164396 0 0 -0.363736385701644 -8.295953990528858 66.19103790897242)"  >
<path style="stroke: none; stroke-width: 1; stroke-dasharray: none; stroke-linecap: butt; stroke-dashoffset: 0; stroke-linejoin: miter; stroke-miterlimit: 4; fill: rgb(196,164,244); fill-rule: nonzero; opacity: 1;"  paint-order="stroke"  transform=" translate(85.22550000000001, -3.8459999999999965)" d="M 0 0 C 0.521 3.729 1.187 7.426 2.004 11.061 C -3.687 12.875 -9.758000000000001 13.883 -16.052999999999997 13.883 C -30.794999999999998 13.883 -44.932 8.416999999999998 -55.864999999999995 -1.4640000000000004 L -61.532999999999994 -6.594 L -67.40299999999999 -1.6870000000000003 C -88.57499999999999 16.012 -115.481 25.733999999999998 -143.127 25.733999999999998 C -153.16500000000002 25.733999999999998 -162.978 24.502999999999997 -172.455 22.104999999999997 C -157.18400000000003 21.703999999999997 -142.57000000000002 18.628999999999998 -129.04600000000002 13.353999999999997 C -106.67800000000003 10.549999999999997 -85.40900000000002 1.405999999999997 -68.01400000000002 -13.136000000000001 L -62.14400000000003 -18.042 L -56.47600000000003 -12.912000000000003 C -45.543 -3.031 -31.405 2.435 -16.664 2.435 C -10.875 2.435 -5.289 1.548 0 0" stroke-linecap="round" />
</g>
		<g transform="matrix(0.36373638570164396 0 0 -0.363736385701644 69.53446639270322 33.70439547733142)"  >
<path style="stroke: none; stroke-width: 1; stroke-dasharray: none; stroke-linecap: butt; stroke-dashoffset: 0; stroke-linejoin: miter; stroke-miterlimit: 4; fill: rgb(196,164,244); fill-rule: nonzero; opacity: 1;"  paint-order="stroke"  transform=" translate(-95.2015, -92.87450000000001)" d="M 0 0 C 10.234 44.528 45.896 80.128 92.287 88.937 L 99.613 90.348 L 99.434 97.786 L 99.411 98.615 C 99.389 99.01899999999999 99.389 99.42099999999999 99.389 99.824 C 99.389 143.243 134.697 178.574 178.11599999999999 178.574 C 187.75 178.574 197.18599999999998 176.811 206.017 173.46200000000002 C 193.47899999999998 181.43400000000003 178.893 185.74900000000002 163.81799999999998 185.74900000000002 C 120.39899999999999 185.74900000000002 85.09099999999998 150.418 85.09099999999998 106.99900000000002 C 85.09099999999998 106.59700000000002 85.09099999999998 106.19300000000003 85.11299999999999 105.79000000000002 L 85.13599999999998 104.96100000000003 L 85.31499999999998 97.52200000000002 L 77.98899999999999 96.11100000000002 C 29.373 86.881 -7.481 48.234 -15.614 0.716 C -14.562000000000001 0.738 -13.486 0.761 -12.434000000000001 0.761 C -8.276 0.761 -4.126 0.485 0 0" stroke-linecap="round" />
</g>
</g>
</g>
<g transform="matrix(1.9211538461538462 0 0 1.9211538461538462 638.75125 721.4471946457809)" id="text-logo"  >
<g style=""  paint-order="stroke"   >
		<g transform="matrix(1 0 0 1 0 0)" id="text-logo-path-0"  >
<path style="stroke: none; stroke-width: 0; stroke-dasharray: none; stroke-linecap: butt; stroke-dashoffset: 0; stroke-linejoin: miter; stroke-miterlimit: 4; fill: rgb(255,255,255); fill-rule: nonzero; opacity: 1;"  paint-order="stroke"  transform=" translate(-253.18, 22.195)" d="M 32.76 0 L 44.33 0 L 28.02 -44.46 L 16.45 -44.46 L 0.2 0 L 11.77 0 L 14.63 -7.74 L 29.9 -7.74 Z M 18.33 -18 L 22.3 -28.73 L 26.13 -18 Z M 58.11 -10.21 L 58.11 -44.46 L 47.26 -44.46 L 47.26 0 L 75.34 0 L 75.34 -10.21 Z M 90.94 -10.21 L 90.94 -44.46 L 80.08 -44.46 L 80.08 0 L 108.16 0 L 108.16 -10.21 Z M 159.12 -34.19 L 159.12 -44.46 L 125.91 -44.46 L 125.91 -34.19 L 137.15 -34.19 L 137.15 0 L 147.94 0 L 147.94 -34.19 Z M 191.75 -44.46 L 191.75 -27.89 L 173.94 -27.89 L 173.94 -44.46 L 163.09 -44.46 L 163.09 0 L 173.94 0 L 173.94 -17.62 L 191.75 -17.62 L 191.75 0 L 202.54 0 L 202.54 -44.46 Z M 210.6 -44.46 L 210.6 0 L 221.45 0 L 221.45 -44.46 Z M 254.8 -44.46 L 254.8 -21.84 L 240.37 -44.46 L 229.51 -44.46 L 229.51 0 L 240.37 0 L 240.37 -25.41 L 256.62 0 L 265.65 0 L 265.65 -44.46 Z M 315.9 -20.41 L 315.9 -24.83 L 291.33 -24.83 L 291.33 -14.56 L 302.77 -14.56 C 300.5 -11.63 297.05 -9.95 293.34 -9.95 C 286.71 -9.95 281.19 -15.47 281.19 -22.04 C 281.19 -28.67 286.78 -34.13 293.34 -34.13 C 297.38 -34.13 300.56 -32.37 303.03 -29.19 L 311.48 -35.88 C 307.06 -41.6 300.63 -44.91 293.34 -44.91 C 280.61 -44.91 270.4 -34.65 270.4 -22.04 C 270.4 -9.36 280.8 0.91 293.34 0.91 C 305.18 0.91 315.9 -8.32 315.9 -20.41 Z M 337.28 0.91 C 345.54 0.91 353.53 -3.71 353.53 -12.61 C 353.53 -21.39 346.64 -25.03 339.17 -27.3 C 337.15 -27.95 335.66 -28.54 334.68 -28.99 C 333.32 -29.64 332.34 -30.36 332.34 -31.98 C 332.34 -33.87 334.75 -34.58 336.24 -34.58 C 339.75 -34.58 341.51 -33.02 343 -29.96 L 352.23 -35.36 C 349.05 -41.93 343.52 -45.3 336.24 -45.3 C 328.31 -45.3 321.55 -40.17 321.55 -31.98 C 321.55 -23.6 327.53 -20.28 334.75 -18.14 C 337.02 -17.48 338.65 -16.9 339.75 -16.45 C 341.25 -15.86 342.74 -15.08 342.74 -13.26 C 342.74 -10.86 339.49 -9.69 337.54 -9.69 C 333.32 -9.69 330.39 -11.31 328.77 -15.34 L 319.67 -10.01 C 322.59 -2.54 329.48 0.91 337.28 0.91 Z M 423.47 -44.46 L 416.58 -17.62 L 408.91 -44.46 L 397.73 -44.46 L 390.06 -17.62 L 383.24 -44.46 L 372.06 -44.46 L 384.08 0 L 395.59 0 L 403.32 -25.87 L 411.06 0 L 422.56 0 L 434.59 -44.46 Z M 448.24 -10.21 L 448.24 -17.62 L 463.71 -17.62 L 463.71 -27.82 L 448.24 -27.82 L 448.24 -34.19 L 465.27 -34.19 L 465.27 -44.46 L 437.38 -44.46 L 437.38 0 L 465.6 0 L 465.6 -10.21 Z M 502.06 -23.92 C 503.56 -26.2 504.34 -28.6 504.34 -31.33 C 504.34 -38.35 498.75 -44.46 491.66 -44.46 L 471.64 -44.46 L 471.64 0 L 482.5 0 L 482.5 -0.07 L 492.76 -0.07 C 500.44 -0.07 506.16 -6.7 506.16 -14.11 C 506.16 -17.81 504.66 -21.32 502.06 -23.92 Z M 482.5 -10.27 L 482.5 -18 L 492.76 -18 C 494.65 -18 495.95 -15.93 495.95 -14.17 C 495.95 -12.42 494.72 -10.27 492.76 -10.27 Z M 482.5 -27.69 L 482.5 -34.19 L 491.66 -34.19 C 493.42 -34.19 494.46 -32.56 494.46 -30.94 C 494.46 -29.32 493.42 -27.82 491.66 -27.82 Z" stroke-linecap="round" />
</g>
</g>
</g>
<g transform="matrix(1.9211538461538462 0 0 1.9211538461538462 654.0762942307692 827.2454703727457)" id="tagline-ec2d901c-09fc-49b0-bf65-73ac5f59bbac-logo"  >
<g style=""  paint-order="stroke"   >
		<g transform="matrix(1 0 0 1 0 0)" id="tagline-ec2d901c-09fc-49b0-bf65-73ac5f59bbac-logo-path-0"  >
<path style="stroke: none; stroke-width: 0; stroke-dasharray: none; stroke-linecap: butt; stroke-dashoffset: 0; stroke-linejoin: miter; stroke-miterlimit: 4; fill: rgb(196,164,244); fill-rule: nonzero; opacity: 1;"  paint-order="stroke"  transform=" translate(-181.55999999999997, 20.393068019120765)" d="M 33.86 3.6 Q 32.98 3.67 32.27 3.23 Q 31.55 2.79 31.28 2.11 L 31.28 2.11 Q 30.87 1.7 30.4 0.88 Q 29.92 0.07 29.78 -0.68 L 29.78 -0.68 Q 29.51 -3.94 29.51 -5.44 L 29.51 -5.44 Q 29.51 -7.34 29.72 -10.61 L 29.72 -10.61 Q 29.92 -13.74 30.5 -16.49 Q 31.08 -19.24 32.1 -23.26 L 32.1 -23.26 Q 32.5 -24.55 32.71 -25.47 Q 32.91 -26.38 32.71 -26.38 L 32.71 -26.38 Q 32.37 -26.32 31.48 -24.65 Q 30.6 -22.98 29.72 -21.08 L 29.72 -21.08 Q 29.31 -20.33 28.93 -19.48 Q 28.56 -18.63 28.15 -17.88 L 28.15 -17.88 Q 26.25 -13.67 21.15 -5.1 L 21.15 -5.1 Q 20.54 -4.35 19.45 -2.72 L 19.45 -2.72 Q 17.34 0.48 15.98 1.7 L 15.98 1.7 Q 14.28 3.33 12.58 3.33 L 12.58 3.33 Q 11.36 3.33 10.54 2.52 L 10.54 2.52 Q 9.66 1.43 9.66 0.41 L 9.66 0.41 Q 9.66 0.14 9.79 -0.54 L 9.79 -0.54 Q 9.59 -2.24 10.17 -7.51 Q 10.74 -12.78 11.36 -16.32 L 11.36 -16.32 Q 11.83 -19.58 13.46 -27.06 L 13.46 -27.06 L 14.96 -34.41 Q 15.37 -35.43 16.25 -38.49 L 16.25 -38.49 L 16.86 -40.73 Q 16.93 -41.96 17.41 -42.53 Q 17.88 -43.11 18.56 -43.11 L 18.56 -43.11 Q 19.52 -43.11 20.2 -42.23 L 20.2 -42.23 Q 21.28 -41 21.28 -39.3 L 21.28 -39.3 Q 21.28 -37.94 20.67 -36.52 L 20.67 -36.52 Q 17.61 -29.04 15.78 -16.8 L 15.78 -16.8 Q 15.1 -12.78 14.52 -8.19 Q 13.94 -3.6 14.21 -3.54 L 14.21 -3.54 Q 14.76 -3.4 15.71 -4.39 Q 16.66 -5.37 17.41 -7 L 17.41 -7 Q 22.03 -14.69 28.22 -26.72 L 28.22 -26.72 Q 28.36 -26.93 31.21 -32.3 L 31.21 -32.3 L 32.84 -35.36 Q 33.05 -35.77 33.35 -36.28 Q 33.66 -36.79 34 -37.33 L 34 -37.33 Q 35.5 -40.12 36.35 -41.48 Q 37.2 -42.84 37.67 -43.04 L 37.67 -43.04 Q 38.83 -42.98 39.58 -42.47 Q 40.32 -41.96 40.87 -40.73 L 40.87 -40.73 Q 40.94 -40.39 40.77 -39.61 Q 40.6 -38.83 40.32 -38.15 L 40.32 -38.15 Q 40.19 -37.74 39.68 -36.11 Q 39.17 -34.48 38.83 -32.84 L 38.83 -32.84 Q 37.54 -29.44 36.92 -26.25 L 36.92 -26.25 Q 36.45 -23.8 35.9 -21.49 L 35.9 -21.49 Q 34.75 -16.25 34.17 -12.85 Q 33.59 -9.45 33.52 -6.73 L 33.52 -6.73 Q 33.46 -3.26 33.93 -2.04 L 33.93 -2.04 Q 34.14 -1.36 34.95 -1.36 L 34.95 -1.36 Q 35.56 -1.36 35.97 -1.84 L 35.97 -1.84 Q 37.94 -4.42 39.24 -6.39 Q 40.53 -8.36 42.02 -11.08 L 42.02 -11.08 Q 46.17 -18.84 51.88 -32.37 L 51.88 -32.37 Q 54.06 -38.62 54.84 -40.53 Q 55.62 -42.43 56.64 -42.98 L 56.64 -42.98 Q 57.05 -43.25 57.46 -43.25 L 57.46 -43.25 Q 58.21 -43.25 58.82 -42.7 L 58.82 -42.7 Q 59.09 -42.43 59.33 -41.82 Q 59.57 -41.21 59.5 -40.46 L 59.5 -40.46 Q 58.82 -38.08 56.34 -31.59 Q 53.86 -25.09 52.5 -22.17 L 52.5 -22.17 Q 52.22 -21.69 51.41 -20.33 L 51.41 -20.33 Q 51.27 -20.13 50.83 -19.35 Q 50.39 -18.56 50.39 -18.16 L 50.39 -18.16 Q 50.39 -17.48 46.82 -11.05 Q 43.25 -4.62 41.55 -2.45 L 41.55 -2.45 Q 39.3 0.41 37.03 2.01 Q 34.75 3.6 33.86 3.6 L 33.86 3.6 Z M 68.41 -2.38 Q 66.71 -0.88 64.33 -0.88 L 64.33 -0.88 Q 62.63 -0.88 61.1 -1.7 Q 59.57 -2.52 58.55 -3.94 L 58.55 -3.94 Q 57.66 -5.03 57.26 -6.39 Q 56.85 -7.75 56.85 -9.72 L 56.85 -9.72 Q 56.85 -10.4 56.98 -12.44 L 56.98 -12.44 Q 57.19 -14.96 58.65 -17.68 Q 60.11 -20.4 62.29 -22.54 Q 64.46 -24.68 66.57 -25.5 L 66.57 -25.5 Q 67.66 -26.18 68.54 -26.18 L 68.54 -26.18 Q 69.02 -26.18 69.5 -26.11 Q 69.97 -26.04 70.52 -25.98 L 70.52 -25.98 Q 72.01 -25.77 72.79 -25.4 Q 73.58 -25.02 74.12 -24.28 L 74.12 -24.28 Q 75.82 -22.58 75.82 -20.33 L 75.82 -20.33 Q 75.55 -18.7 73.71 -16.59 Q 71.88 -14.48 69.29 -13.19 L 69.29 -13.19 Q 68.07 -12.78 66.5 -12.78 L 66.5 -12.78 Q 64.4 -12.78 63.1 -13.67 L 63.1 -13.67 Q 62.49 -13.87 62.15 -13.87 L 62.15 -13.87 Q 61.54 -13.87 61.23 -13.06 Q 60.93 -12.24 60.66 -10.06 L 60.66 -10.06 Q 60.59 -9.59 60.59 -8.7 L 60.59 -8.7 Q 60.59 -5.24 62.9 -4.9 L 62.9 -4.9 Q 64.46 -4.56 65.14 -4.56 L 65.14 -4.56 Q 65.96 -4.56 66.98 -5.1 L 66.98 -5.1 L 68.27 -5.85 Q 68.68 -6.05 69.02 -6.39 Q 69.36 -6.73 69.63 -7 L 69.63 -7 Q 69.77 -7.14 70.04 -7.45 Q 70.31 -7.75 70.55 -7.85 Q 70.79 -7.96 70.99 -7.96 L 70.99 -7.96 Q 71.26 -7.96 71.6 -7.65 Q 71.94 -7.34 72.15 -7.21 L 72.15 -7.21 Q 72.76 -7.21 72.42 -6.36 Q 72.08 -5.51 70.96 -4.39 Q 69.84 -3.26 68.41 -2.38 L 68.41 -2.38 Z M 68.34 -16.8 Q 69.5 -17.27 70.69 -18.5 Q 71.88 -19.72 71.88 -20.54 L 71.88 -20.54 Q 71.88 -21.35 71.26 -21.9 Q 70.65 -22.44 69.56 -22.44 L 69.56 -22.44 Q 68.75 -22.44 68.34 -22.3 L 68.34 -22.3 Q 67.39 -22.03 66.1 -20.84 Q 64.8 -19.65 63.85 -18.43 Q 62.9 -17.2 63.1 -17 L 63.1 -17 Q 63.44 -16.39 65.76 -16.39 L 65.76 -16.39 Q 67.32 -16.39 68.34 -16.8 L 68.34 -16.8 Z M 86.09 -1.16 Q 84.73 -1.29 84.42 -1.5 Q 84.12 -1.7 83.71 -2.58 L 83.71 -2.58 Q 83.16 -3.13 83.06 -3.47 Q 82.96 -3.81 83.03 -4.15 L 83.03 -4.15 Q 83.84 -4.15 83.98 -4.42 L 83.98 -4.42 Q 83.98 -4.62 84.22 -4.69 Q 84.46 -4.76 84.73 -4.69 L 84.73 -4.69 Q 86.56 -4.56 90.03 -6.6 Q 93.5 -8.64 96.97 -11.83 L 96.97 -11.83 Q 98.94 -14.35 99.72 -15.78 Q 100.5 -17.2 100.5 -18.09 L 100.5 -18.09 Q 100.5 -18.63 100.3 -19.11 L 100.3 -19.11 Q 100.1 -19.58 98.87 -19.58 L 98.87 -19.58 Q 96.76 -19.58 94.52 -18.09 L 94.52 -18.09 Q 91.6 -16.25 89.83 -14.72 Q 88.06 -13.19 86.56 -11.15 L 86.56 -11.15 Q 85.88 -10.27 85.2 -8.94 Q 84.52 -7.62 84.32 -7.21 L 84.32 -7.21 Q 84.32 -6.94 83.54 -6.53 Q 82.76 -6.12 82.21 -6.12 L 82.21 -6.12 Q 81.87 -6.26 81.43 -6.66 Q 80.99 -7.07 80.92 -7.62 L 80.92 -7.62 Q 80.78 -7.75 80.48 -7.96 Q 80.17 -8.16 80.07 -8.36 Q 79.97 -8.57 79.97 -8.84 L 79.97 -8.84 Q 79.97 -9.25 80.34 -10.64 Q 80.72 -12.04 80.92 -12.72 L 80.92 -12.72 Q 81.46 -15.3 82.31 -18.09 Q 83.16 -20.88 83.5 -21.15 L 83.5 -21.15 Q 83.57 -21.28 83.81 -21.9 Q 84.05 -22.51 84.05 -23.19 L 84.05 -23.19 Q 84.18 -23.8 84.49 -24.58 Q 84.8 -25.36 84.8 -25.5 L 84.8 -25.5 Q 85.14 -25.77 86.97 -30.87 L 86.97 -30.87 Q 86.97 -31.14 88.47 -34.48 L 88.47 -34.48 Q 90.71 -39.58 91.19 -41 L 91.19 -41 Q 91.8 -41.89 92.28 -42.84 L 92.28 -42.84 Q 93.02 -44.2 93.36 -44.34 L 93.36 -44.34 Q 93.91 -44.47 94.76 -44.13 Q 95.61 -43.79 96.08 -43.11 L 96.08 -43.11 Q 96.42 -42.64 96.42 -42.43 L 96.42 -42.43 Q 96.42 -42.09 96.05 -41.17 Q 95.68 -40.26 95.2 -39.3 Q 94.72 -38.35 94.52 -37.88 L 94.52 -37.88 L 92.82 -34.34 Q 90.98 -30.46 89.83 -27.44 Q 88.67 -24.41 87.38 -20.54 L 87.38 -20.54 L 86.16 -17.2 L 85.82 -15.71 L 87.52 -17.34 Q 88.33 -17.95 90.51 -19.86 L 90.51 -19.86 Q 90.98 -20.26 91.36 -20.57 Q 91.73 -20.88 91.94 -21.08 L 91.94 -21.08 Q 92.75 -21.62 94.32 -22.3 Q 95.88 -22.98 96.49 -23.12 L 96.49 -23.12 Q 97.85 -23.46 99.48 -23.46 L 99.48 -23.46 Q 100.91 -23.46 101.86 -22.78 Q 102.82 -22.1 103.7 -20.6 L 103.7 -20.6 Q 104.31 -19.38 104.31 -17.95 L 104.31 -17.95 Q 104.31 -15.84 103.22 -14.01 L 103.22 -14.01 Q 102.88 -13.74 102.54 -13.29 Q 102.2 -12.85 102.2 -12.58 L 102.2 -12.58 Q 102.14 -12.17 101.05 -10.74 Q 99.96 -9.32 98.67 -7.89 L 98.67 -7.89 Q 96.9 -6.05 94.01 -4.22 Q 91.12 -2.38 89.22 -1.7 L 89.22 -1.7 Q 88.81 -1.63 87.69 -1.46 Q 86.56 -1.29 86.09 -1.16 L 86.09 -1.16 Z M 142.39 1.29 Q 140.69 1.7 140.08 -0.2 L 140.08 -0.2 Q 139.13 -2.86 139.13 -5.78 L 139.13 -5.78 Q 139.13 -6.6 139.2 -6.94 L 139.2 -6.94 L 139.33 -8.36 L 136.68 -6.26 Q 134.5 -4.35 132.36 -3.4 Q 130.22 -2.45 128.45 -2.45 L 128.45 -2.45 Q 127.3 -2.65 126.24 -3.43 Q 125.19 -4.22 124.71 -5.3 L 124.71 -5.3 Q 124.44 -5.85 124.44 -6.94 L 124.44 -6.94 Q 124.44 -9.45 125.8 -12.89 Q 127.16 -16.32 129.2 -18.56 L 129.2 -18.56 Q 132.12 -22.98 135.73 -22.98 L 135.73 -22.98 Q 137.43 -22.98 139.13 -21.96 L 139.13 -21.96 Q 140.83 -21.28 141.1 -21.28 L 141.1 -21.28 Q 141.51 -21.28 141.71 -21.62 Q 141.92 -21.96 142.12 -22.85 L 142.12 -22.85 Q 142.87 -25.98 143.55 -28.08 L 143.55 -28.08 Q 145.04 -32.57 146.13 -35.29 Q 147.22 -38.01 148.78 -41.28 L 148.78 -41.28 Q 149.46 -42.7 149.97 -43.15 Q 150.48 -43.59 151.1 -43.52 L 151.1 -43.52 Q 152.59 -43.52 153.41 -41.48 L 153.41 -41.48 Q 153.61 -41 153.61 -40.53 L 153.61 -40.53 Q 153.61 -40.05 153.2 -39.24 L 153.2 -39.24 Q 151.44 -36.18 148.85 -29.24 Q 146.27 -22.3 144.84 -17.2 L 144.84 -17.2 Q 144.23 -14.96 143.79 -10.74 Q 143.34 -6.53 143.34 -3.74 L 143.34 -3.74 Q 143.34 -2.52 143.48 -1.97 L 143.48 -1.97 Q 143.82 -0.82 143.82 0.07 L 143.82 0.07 Q 143.82 0.75 143.48 0.99 Q 143.14 1.22 142.39 1.29 L 142.39 1.29 Z M 130.9 -6.26 Q 132.46 -6.6 134.71 -8.3 L 134.71 -8.3 Q 135.12 -8.57 136.68 -9.72 Q 138.24 -10.88 139.06 -12.17 Q 139.88 -13.46 140.22 -15.1 L 140.22 -15.1 Q 140.28 -16.32 139.98 -17.1 Q 139.67 -17.88 138.79 -18.63 L 138.79 -18.63 Q 138.11 -19.11 137.09 -19.11 L 137.09 -19.11 Q 135.25 -19.11 133.69 -17.61 L 133.69 -17.61 Q 131.85 -15.98 130.42 -13.4 Q 129 -10.81 128.25 -7.41 L 128.25 -7.41 Q 128.04 -6.12 129.61 -6.12 L 129.61 -6.12 Q 130.42 -6.12 130.9 -6.26 L 130.9 -6.26 Z M 163.27 -2.38 Q 161.57 -0.88 159.19 -0.88 L 159.19 -0.88 Q 157.49 -0.88 155.96 -1.7 Q 154.43 -2.52 153.41 -3.94 L 153.41 -3.94 Q 152.52 -5.03 152.12 -6.39 Q 151.71 -7.75 151.71 -9.72 L 151.71 -9.72 Q 151.71 -10.4 151.84 -12.44 L 151.84 -12.44 Q 152.05 -14.96 153.51 -17.68 Q 154.97 -20.4 157.15 -22.54 Q 159.32 -24.68 161.43 -25.5 L 161.43 -25.5 Q 162.52 -26.18 163.4 -26.18 L 163.4 -26.18 Q 163.88 -26.18 164.36 -26.11 Q 164.83 -26.04 165.38 -25.98 L 165.38 -25.98 Q 166.87 -25.77 167.65 -25.4 Q 168.44 -25.02 168.98 -24.28 L 168.98 -24.28 Q 170.68 -22.58 170.68 -20.33 L 170.68 -20.33 Q 170.41 -18.7 168.57 -16.59 Q 166.74 -14.48 164.15 -13.19 L 164.15 -13.19 Q 162.93 -12.78 161.36 -12.78 L 161.36 -12.78 Q 159.26 -12.78 157.96 -13.67 L 157.96 -13.67 Q 157.35 -13.87 157.01 -13.87 L 157.01 -13.87 Q 156.4 -13.87 156.09 -13.06 Q 155.79 -12.24 155.52 -10.06 L 155.52 -10.06 Q 155.45 -9.59 155.45 -8.7 L 155.45 -8.7 Q 155.45 -5.24 157.76 -4.9 L 157.76 -4.9 Q 159.32 -4.56 160 -4.56 L 160 -4.56 Q 160.82 -4.56 161.84 -5.1 L 161.84 -5.1 L 163.13 -5.85 Q 163.54 -6.05 163.88 -6.39 Q 164.22 -6.73 164.49 -7 L 164.49 -7 Q 164.63 -7.14 164.9 -7.45 Q 165.17 -7.75 165.41 -7.85 Q 165.65 -7.96 165.85 -7.96 L 165.85 -7.96 Q 166.12 -7.96 166.46 -7.65 Q 166.8 -7.34 167.01 -7.21 L 167.01 -7.21 Q 167.62 -7.21 167.28 -6.36 Q 166.94 -5.51 165.82 -4.39 Q 164.7 -3.26 163.27 -2.38 L 163.27 -2.38 Z M 163.2 -16.8 Q 164.36 -17.27 165.55 -18.5 Q 166.74 -19.72 166.74 -20.54 L 166.74 -20.54 Q 166.74 -21.35 166.12 -21.9 Q 165.51 -22.44 164.42 -22.44 L 164.42 -22.44 Q 163.61 -22.44 163.2 -22.3 L 163.2 -22.3 Q 162.25 -22.03 160.96 -20.84 Q 159.66 -19.65 158.71 -18.43 Q 157.76 -17.2 157.96 -17 L 157.96 -17 Q 158.3 -16.39 160.62 -16.39 L 160.62 -16.39 Q 162.18 -16.39 163.2 -16.8 L 163.2 -16.8 Z M 179.04 -4.15 Q 178.3 -4.69 177.17 -8.7 Q 176.05 -12.72 175.44 -16.46 L 175.44 -16.46 Q 175.17 -17.88 174.35 -20.33 L 174.35 -20.33 Q 174.08 -21.42 174.08 -21.83 L 174.08 -21.83 Q 174.08 -23.05 175.1 -23.66 L 175.1 -23.66 Q 175.37 -23.87 175.88 -23.97 Q 176.39 -24.07 176.73 -24 L 176.73 -24 Q 178.23 -23.46 179.45 -15.71 L 179.45 -15.71 Q 179.66 -13.74 180.06 -12.17 Q 180.47 -10.61 180.54 -10.34 L 180.54 -10.34 Q 180.74 -9.93 181.02 -9.49 Q 181.29 -9.04 181.63 -9.04 L 181.63 -9.04 Q 181.83 -9.04 182.1 -9.32 L 182.1 -9.32 Q 183.4 -10.61 184.89 -12.58 L 184.89 -12.58 Q 186.52 -14.82 187.14 -15.57 L 187.14 -15.57 Q 187.88 -16.73 189.11 -18.29 L 189.11 -18.29 Q 189.31 -18.56 190.06 -19.58 Q 190.81 -20.6 191.49 -21.32 Q 192.17 -22.03 192.64 -22.17 L 192.64 -22.17 Q 192.85 -22.24 193.26 -22.24 L 193.26 -22.24 Q 194.41 -22.24 194.41 -21.28 L 194.41 -21.28 Q 194.41 -20.4 193.19 -18.63 L 193.19 -18.63 Q 192.78 -18.09 192.34 -17.17 Q 191.9 -16.25 191.76 -16.12 L 191.76 -16.12 Q 191.01 -14.62 189.01 -11.9 Q 187 -9.18 186.32 -8.5 L 186.32 -8.5 Q 186.18 -8.36 185.2 -7.55 Q 184.21 -6.73 183.4 -5.58 L 183.4 -5.58 Q 181.22 -3.54 180.27 -3.54 L 180.27 -3.54 Q 179.66 -3.54 179.04 -4.15 L 179.04 -4.15 Z M 224.33 -2.38 Q 222.63 -0.88 220.25 -0.88 L 220.25 -0.88 Q 218.55 -0.88 217.02 -1.7 Q 215.49 -2.52 214.47 -3.94 L 214.47 -3.94 Q 213.59 -5.03 213.18 -6.39 Q 212.77 -7.75 212.77 -9.72 L 212.77 -9.72 Q 212.77 -10.4 212.91 -12.44 L 212.91 -12.44 Q 213.11 -14.96 214.57 -17.68 Q 216.04 -20.4 218.21 -22.54 Q 220.39 -24.68 222.5 -25.5 L 222.5 -25.5 Q 223.58 -26.18 224.47 -26.18 L 224.47 -26.18 Q 224.94 -26.18 225.42 -26.11 Q 225.9 -26.04 226.44 -25.98 L 226.44 -25.98 Q 227.94 -25.77 228.72 -25.4 Q 229.5 -25.02 230.04 -24.28 L 230.04 -24.28 Q 231.74 -22.58 231.74 -20.33 L 231.74 -20.33 Q 231.47 -18.7 229.64 -16.59 Q 227.8 -14.48 225.22 -13.19 L 225.22 -13.19 Q 223.99 -12.78 222.43 -12.78 L 222.43 -12.78 Q 220.32 -12.78 219.03 -13.67 L 219.03 -13.67 Q 218.42 -13.87 218.08 -13.87 L 218.08 -13.87 Q 217.46 -13.87 217.16 -13.06 Q 216.85 -12.24 216.58 -10.06 L 216.58 -10.06 Q 216.51 -9.59 216.51 -8.7 L 216.51 -8.7 Q 216.51 -5.24 218.82 -4.9 L 218.82 -4.9 Q 220.39 -4.56 221.07 -4.56 L 221.07 -4.56 Q 221.88 -4.56 222.9 -5.1 L 222.9 -5.1 L 224.2 -5.85 Q 224.6 -6.05 224.94 -6.39 Q 225.28 -6.73 225.56 -7 L 225.56 -7 Q 225.69 -7.14 225.96 -7.45 Q 226.24 -7.75 226.47 -7.85 Q 226.71 -7.96 226.92 -7.96 L 226.92 -7.96 Q 227.19 -7.96 227.53 -7.65 Q 227.87 -7.34 228.07 -7.21 L 228.07 -7.21 Q 228.68 -7.21 228.34 -6.36 Q 228 -5.51 226.88 -4.39 Q 225.76 -3.26 224.33 -2.38 L 224.33 -2.38 Z M 224.26 -16.8 Q 225.42 -17.27 226.61 -18.5 Q 227.8 -19.72 227.8 -20.54 L 227.8 -20.54 Q 227.8 -21.35 227.19 -21.9 Q 226.58 -22.44 225.49 -22.44 L 225.49 -22.44 Q 224.67 -22.44 224.26 -22.3 L 224.26 -22.3 Q 223.31 -22.03 222.02 -20.84 Q 220.73 -19.65 219.78 -18.43 Q 218.82 -17.2 219.03 -17 L 219.03 -17 Q 219.37 -16.39 221.68 -16.39 L 221.68 -16.39 Q 223.24 -16.39 224.26 -16.8 L 224.26 -16.8 Z M 240.11 -4.15 Q 239.36 -4.69 238.24 -8.7 Q 237.12 -12.72 236.5 -16.46 L 236.5 -16.46 Q 236.23 -17.88 235.42 -20.33 L 235.42 -20.33 Q 235.14 -21.42 235.14 -21.83 L 235.14 -21.83 Q 235.14 -23.05 236.16 -23.66 L 236.16 -23.66 Q 236.44 -23.87 236.95 -23.97 Q 237.46 -24.07 237.8 -24 L 237.8 -24 Q 239.29 -23.46 240.52 -15.71 L 240.52 -15.71 Q 240.72 -13.74 241.13 -12.17 Q 241.54 -10.61 241.6 -10.34 L 241.6 -10.34 Q 241.81 -9.93 242.08 -9.49 Q 242.35 -9.04 242.69 -9.04 L 242.69 -9.04 Q 242.9 -9.04 243.17 -9.32 L 243.17 -9.32 Q 244.46 -10.61 245.96 -12.58 L 245.96 -12.58 Q 247.59 -14.82 248.2 -15.57 L 248.2 -15.57 Q 248.95 -16.73 250.17 -18.29 L 250.17 -18.29 Q 250.38 -18.56 251.12 -19.58 Q 251.87 -20.6 252.55 -21.32 Q 253.23 -22.03 253.71 -22.17 L 253.71 -22.17 Q 253.91 -22.24 254.32 -22.24 L 254.32 -22.24 Q 255.48 -22.24 255.48 -21.28 L 255.48 -21.28 Q 255.48 -20.4 254.25 -18.63 L 254.25 -18.63 Q 253.84 -18.09 253.4 -17.17 Q 252.96 -16.25 252.82 -16.12 L 252.82 -16.12 Q 252.08 -14.62 250.07 -11.9 Q 248.06 -9.18 247.38 -8.5 L 247.38 -8.5 Q 247.25 -8.36 246.26 -7.55 Q 245.28 -6.73 244.46 -5.58 L 244.46 -5.58 Q 242.28 -3.54 241.33 -3.54 L 241.33 -3.54 Q 240.72 -3.54 240.11 -4.15 L 240.11 -4.15 Z M 268.94 -2.38 Q 267.24 -0.88 264.86 -0.88 L 264.86 -0.88 Q 263.16 -0.88 261.63 -1.7 Q 260.1 -2.52 259.08 -3.94 L 259.08 -3.94 Q 258.2 -5.03 257.79 -6.39 Q 257.38 -7.75 257.38 -9.72 L 257.38 -9.72 Q 257.38 -10.4 257.52 -12.44 L 257.52 -12.44 Q 257.72 -14.96 259.18 -17.68 Q 260.64 -20.4 262.82 -22.54 Q 265 -24.68 267.1 -25.5 L 267.1 -25.5 Q 268.19 -26.18 269.08 -26.18 L 269.08 -26.18 Q 269.55 -26.18 270.03 -26.11 Q 270.5 -26.04 271.05 -25.98 L 271.05 -25.98 Q 272.54 -25.77 273.33 -25.4 Q 274.11 -25.02 274.65 -24.28 L 274.65 -24.28 Q 276.35 -22.58 276.35 -20.33 L 276.35 -20.33 Q 276.08 -18.7 274.24 -16.59 Q 272.41 -14.48 269.82 -13.19 L 269.82 -13.19 Q 268.6 -12.78 267.04 -12.78 L 267.04 -12.78 Q 264.93 -12.78 263.64 -13.67 L 263.64 -13.67 Q 263.02 -13.87 262.68 -13.87 L 262.68 -13.87 Q 262.07 -13.87 261.77 -13.06 Q 261.46 -12.24 261.19 -10.06 L 261.19 -10.06 Q 261.12 -9.59 261.12 -8.7 L 261.12 -8.7 Q 261.12 -5.24 263.43 -4.9 L 263.43 -4.9 Q 265 -4.56 265.68 -4.56 L 265.68 -4.56 Q 266.49 -4.56 267.51 -5.1 L 267.51 -5.1 L 268.8 -5.85 Q 269.21 -6.05 269.55 -6.39 Q 269.89 -6.73 270.16 -7 L 270.16 -7 Q 270.3 -7.14 270.57 -7.45 Q 270.84 -7.75 271.08 -7.85 Q 271.32 -7.96 271.52 -7.96 L 271.52 -7.96 Q 271.8 -7.96 272.14 -7.65 Q 272.48 -7.34 272.68 -7.21 L 272.68 -7.21 Q 273.29 -7.21 272.95 -6.36 Q 272.61 -5.51 271.49 -4.39 Q 270.37 -3.26 268.94 -2.38 L 268.94 -2.38 Z M 268.87 -16.8 Q 270.03 -17.27 271.22 -18.5 Q 272.41 -19.72 272.41 -20.54 L 272.41 -20.54 Q 272.41 -21.35 271.8 -21.9 Q 271.18 -22.44 270.1 -22.44 L 270.1 -22.44 Q 269.28 -22.44 268.87 -22.3 L 268.87 -22.3 Q 267.92 -22.03 266.63 -20.84 Q 265.34 -19.65 264.38 -18.43 Q 263.43 -17.2 263.64 -17 L 263.64 -17 Q 263.98 -16.39 266.29 -16.39 L 266.29 -16.39 Q 267.85 -16.39 268.87 -16.8 L 268.87 -16.8 Z M 303.14 -3.13 Q 301.78 -3.13 300.9 -3.71 Q 300.02 -4.28 299.4 -5.64 L 299.4 -5.64 Q 298.79 -7.82 298.79 -10 L 298.79 -10 Q 298.79 -11.02 299 -11.42 L 299 -11.42 Q 299.27 -11.7 299.23 -12.61 Q 299.2 -13.53 299.2 -13.94 L 299.2 -13.94 Q 299.13 -15.5 298.25 -15.5 L 298.25 -15.5 Q 297.64 -15.5 296.89 -15.03 L 296.89 -15.03 Q 293.08 -12.65 290.5 -10.95 Q 287.91 -9.25 285.53 -7.14 L 285.53 -7.14 Q 284.58 -6.05 284.1 -5.24 Q 283.63 -4.42 283.42 -4.11 Q 283.22 -3.81 282.88 -3.81 L 282.88 -3.81 Q 282.47 -3.67 282.34 -3.67 L 282.34 -3.67 Q 282 -3.67 281.52 -4.05 Q 281.04 -4.42 280.91 -4.56 L 280.91 -4.56 Q 280.64 -4.83 280.02 -5.47 Q 279.41 -6.12 279.34 -6.39 L 279.34 -6.39 Q 279.34 -6.94 279.79 -8.91 Q 280.23 -10.88 280.5 -11.42 L 280.5 -11.42 Q 280.7 -11.42 281.11 -12.27 Q 281.52 -13.12 281.86 -13.6 L 281.86 -13.6 Q 282.06 -14.62 283.63 -18.29 L 283.63 -18.29 Q 284.58 -19.92 284.95 -21.01 Q 285.33 -22.1 285.46 -23.73 L 285.46 -23.73 L 285.46 -23.87 Q 285.46 -24.14 285.67 -24.31 Q 285.87 -24.48 286.08 -24.48 L 286.08 -24.48 Q 286.55 -24.82 286.96 -24.82 L 286.96 -24.82 Q 287.84 -24.82 288.73 -23.73 L 288.73 -23.73 Q 289.75 -22.44 289.75 -21.01 L 289.75 -21.01 Q 289.75 -19.24 287.5 -15.44 L 287.5 -15.44 Q 287.3 -14.96 286.93 -14.08 Q 286.55 -13.19 286.55 -12.85 L 286.55 -12.85 L 290.36 -15.44 Q 290.9 -16.05 293.28 -17.61 Q 295.66 -19.18 296.62 -19.38 L 296.62 -19.38 Q 298.25 -20.13 298.66 -20.13 L 298.66 -20.13 Q 299.47 -20.13 300.87 -18.9 Q 302.26 -17.68 302.53 -16.86 L 302.53 -16.86 Q 302.53 -16.12 302.67 -15.78 L 302.67 -15.78 Q 303.01 -14.42 303.01 -12.58 L 303.01 -12.58 Q 303.01 -11.36 302.84 -10.37 Q 302.67 -9.38 302.4 -9.25 L 302.4 -9.25 Q 302.4 -9.18 302.46 -9.04 Q 302.53 -8.91 302.74 -8.91 L 302.74 -8.91 L 302.74 -8.57 Q 302.19 -8.57 302.6 -7.41 Q 303.01 -6.26 303.69 -5.64 L 303.69 -5.64 Q 304.37 -4.96 304.37 -4.28 L 304.37 -4.28 Q 304.37 -3.47 303.14 -3.13 L 303.14 -3.13 Z M 314.36 -0.48 Q 313.28 -0.68 312.15 -1.94 Q 311.03 -3.2 310.69 -4.28 L 310.69 -4.28 Q 310.69 -4.42 310.56 -4.59 Q 310.42 -4.76 310.35 -4.83 L 310.35 -4.83 Q 310.08 -5.03 310.08 -7.07 L 310.08 -7.07 Q 310.08 -8.7 310.25 -10.47 Q 310.42 -12.24 310.69 -13.33 L 310.69 -13.33 L 311.92 -16.93 L 312.87 -19.65 L 314.7 -23.6 L 311.98 -24.34 Q 311.51 -24.41 311.2 -24.82 Q 310.9 -25.23 310.9 -25.57 L 310.9 -25.57 Q 310.9 -26.11 311.47 -26.89 Q 312.05 -27.68 312.39 -27.68 L 312.39 -27.68 Q 312.6 -27.61 313.48 -27.61 L 313.48 -27.61 Q 315.52 -27.61 316.54 -27.81 L 316.54 -27.81 Q 317.22 -28.08 317.49 -28.9 L 317.49 -28.9 Q 317.76 -29.44 318.14 -30.26 Q 318.51 -31.08 318.85 -31.76 L 318.85 -31.76 Q 319.06 -32.16 319.5 -33.01 Q 319.94 -33.86 320.62 -34.95 L 320.62 -34.95 Q 320.76 -35.16 321.23 -35.94 Q 321.71 -36.72 322.39 -37.26 L 322.39 -37.26 Q 322.86 -37.74 323.54 -37.74 L 323.54 -37.74 Q 324.22 -37.74 325.31 -36.86 L 325.31 -36.86 Q 325.45 -36.65 325.69 -36.31 Q 325.92 -35.97 325.92 -35.7 L 325.92 -35.7 Q 325.92 -35.43 325.38 -34.54 L 325.38 -34.54 Q 324.97 -33.73 324.6 -33.08 Q 324.22 -32.44 323.95 -31.96 L 323.95 -31.96 Q 323.14 -30.6 322.8 -29.92 L 322.8 -29.92 Q 322.12 -29.04 322.12 -28.56 L 322.12 -28.56 Q 322.12 -28.08 323 -28.08 L 323 -28.08 Q 323.95 -28.08 326.2 -28.49 L 326.2 -28.49 Q 327.15 -28.63 327.49 -28.63 L 327.49 -28.63 Q 329.87 -28.63 330.07 -26.66 L 330.07 -26.66 Q 330.14 -26.25 330.14 -25.7 L 330.14 -25.7 Q 330.14 -24.75 329.49 -24.55 Q 328.85 -24.34 326.6 -24.34 L 326.6 -24.34 Q 324.43 -24 322.12 -24 L 322.12 -24 Q 321.71 -24 321.2 -23.97 Q 320.69 -23.94 320.14 -23.8 L 320.14 -23.8 Q 319.6 -23.66 319.36 -23.39 Q 319.12 -23.12 318.85 -22.51 L 318.85 -22.51 Q 318.65 -22.3 317.9 -20.94 L 317.9 -20.94 Q 316.95 -18.97 316.68 -18.56 L 316.68 -18.56 Q 314.84 -13.12 313.96 -7.41 L 313.96 -7.41 Q 313.82 -6.32 313.82 -6.05 L 313.82 -6.05 Q 313.82 -5.03 314.5 -4.62 Q 315.18 -4.22 316.81 -4.22 L 316.81 -4.22 Q 319.12 -4.22 320.82 -4.69 L 320.82 -4.69 Q 322.86 -5.58 323.88 -6.19 L 323.88 -6.19 Q 324.5 -6.53 325.01 -6.83 Q 325.52 -7.14 325.72 -7.28 L 325.72 -7.28 Q 325.92 -7.68 326.2 -7.68 L 326.2 -7.68 Q 326.74 -7.68 327.15 -6.6 L 327.15 -6.6 Q 327.15 -5.51 326.67 -4.69 Q 326.2 -3.88 324.29 -2.79 L 324.29 -2.79 Q 320.35 -0.27 316.4 -0.27 L 316.4 -0.27 Q 315.32 -0.27 314.36 -0.48 L 314.36 -0.48 Z M 335.65 0.27 Q 334.42 -0.2 333.27 -1.12 Q 332.11 -2.04 331.7 -2.72 L 331.7 -2.72 Q 331.7 -2.86 331.7 -3.2 Q 331.7 -3.54 331.91 -3.64 Q 332.11 -3.74 332.66 -3.74 L 332.66 -3.74 Q 333.81 -3.74 336.33 -3.47 L 336.33 -3.47 Q 337.82 -3.47 339.73 -3.84 Q 341.63 -4.22 341.84 -4.69 L 341.84 -4.69 Q 342.04 -4.69 342.04 -4.76 L 342.04 -4.76 Q 342.04 -4.9 341.5 -5.44 L 341.5 -5.44 Q 341.36 -5.44 340.88 -5.68 Q 340.41 -5.92 340.27 -5.92 L 340.27 -5.92 Q 340.27 -6.19 339.66 -6.63 Q 339.05 -7.07 338.3 -7.41 L 338.3 -7.41 Q 336.33 -9.04 335.51 -9.83 Q 334.7 -10.61 334.9 -10.95 L 334.9 -10.95 L 334.9 -11.29 Q 334.42 -11.29 333.85 -12.61 Q 333.27 -13.94 333.27 -15.1 L 333.27 -15.1 Q 333.27 -16.32 334.32 -18.5 Q 335.38 -20.67 336.74 -22.03 L 336.74 -22.03 Q 338.64 -23.8 341.67 -25.77 Q 344.69 -27.74 346.46 -28.29 L 346.46 -28.29 Q 347.62 -28.76 348.77 -28.76 L 348.77 -28.76 Q 349.86 -28.76 350.61 -28.29 L 350.61 -28.29 Q 351.49 -27.74 352.34 -26.72 Q 353.19 -25.7 353.46 -24.89 L 353.46 -24.89 Q 353.46 -23.39 353.16 -22 Q 352.85 -20.6 352.24 -20.6 L 352.24 -20.6 Q 352.17 -20.6 352.04 -20.54 Q 351.9 -20.47 351.9 -20.2 L 351.9 -20.2 Q 351.9 -19.92 351.63 -19.48 Q 351.36 -19.04 350.88 -18.63 L 350.88 -18.63 Q 349.38 -17.54 348.43 -17.54 L 348.43 -17.54 Q 347.68 -17.54 347.48 -18.29 L 347.48 -18.29 Q 347.34 -18.43 347.21 -18.7 Q 347.07 -18.97 346.87 -18.97 L 346.87 -18.97 Q 346.8 -18.97 346.63 -19.21 Q 346.46 -19.45 346.46 -19.86 L 346.46 -19.86 Q 346.46 -20.06 346.63 -20.3 Q 346.8 -20.54 346.87 -20.6 L 346.87 -20.6 Q 347.28 -20.6 348.23 -22.2 Q 349.18 -23.8 349.18 -24.34 L 349.18 -24.34 Q 349.18 -24.75 349.08 -24.82 Q 348.98 -24.89 348.43 -24.89 L 348.43 -24.89 Q 343.13 -22.51 341.84 -21.28 L 341.84 -21.28 Q 341.63 -20.88 341.53 -20.74 Q 341.43 -20.6 341.16 -20.6 L 341.16 -20.6 Q 341.16 -21.22 337.55 -15.98 L 337.55 -15.98 Q 337.42 -15.84 337.25 -15.16 Q 337.08 -14.48 337.08 -14.01 L 337.08 -14.01 Q 336.94 -13.46 336.94 -13.4 L 336.94 -13.4 Q 336.94 -13.12 337.18 -12.85 Q 337.42 -12.58 337.82 -12.27 Q 338.23 -11.97 338.64 -11.63 L 338.64 -11.63 Q 342.18 -8.98 343.57 -7.65 Q 344.96 -6.32 345.24 -5.44 L 345.24 -5.44 Q 346.12 -4.08 346.12 -2.99 L 346.12 -2.99 Q 346.12 -2.18 345.51 -1.56 Q 344.9 -0.95 343.67 -0.41 L 343.67 -0.41 Q 342.92 -0.07 341.16 0.17 Q 339.39 0.41 337.69 0.41 L 337.69 0.41 Q 336.74 0.41 335.65 0.27 L 335.65 0.27 Z" stroke-linecap="round" />
</g>
</g>
</g>
</svg>